<svg width="361" height="388" viewBox="0 0 361 388" fill="none" xmlns="http://www.w3.org/2000/svg">
<g clip-path="url(#clip0_6080_154094)">
<rect x="330" y="350" width="9.716" height="4.61" transform="rotate(-17 330 350)" fill="#755FFE" fill-opacity="0.65"/>
<rect x="117" y="272" width="5.716" height="4.61" transform="rotate(180 117 272)" fill="#4BC8EF" fill-opacity="0.35"/>
<rect x="333" y="256" width="4.716" height="6.61" transform="rotate(13 333 256)" fill="#F62584" fill-opacity="0.75"/>
<rect x="152" y="149" width="7.716" height="6.61" transform="rotate(172 152 149)" fill="#C9FCBE" fill-opacity="0.65"/>
<rect x="173" y="191" width="14.716" height="6.61" transform="rotate(-138 173 191)" fill="#FC9E1C" fill-opacity="0.6"/>
<rect x="186" y="205" width="7.716" height="5.61" transform="rotate(-34 186 205)" fill="#FF21FB" fill-opacity="0.45"/>
<rect x="330" y="29" width="4.716" height="5.61" transform="rotate(-167 330 29)" fill="#9AF5FC" fill-opacity="0.6"/>
<rect x="113" y="359" width="12.716" height="7.61" transform="rotate(136 113 359)" fill="#480CA7" fill-opacity="0.65"/>
<rect x="296" y="32" width="11.716" height="4.61" transform="rotate(-81 296 32)" fill="#9AF5FC" fill-opacity="0.85"/>
<rect x="213" y="13" width="5.716" height="4.61" transform="rotate(69 213 13)" fill="#F54721" fill-opacity="0.85"/>
<rect x="145" y="197" width="4.716" height="3.61" transform="rotate(-137 145 197)" fill="#03A3F5" fill-opacity="0.6"/>
<rect x="322" y="138" width="9.716" height="6.61" transform="rotate(41 322 138)" fill="#F54721" fill-opacity="0.75"/>
<circle cx="184.97" cy="106.97" r="2.97" fill="#C9FCBE" fill-opacity="0.65"/>
<circle cx="10.97" cy="63.97" r="1.97" fill="#FC9E1C" fill-opacity="0.35"/>
<circle cx="52.97" cy="161.97" r="0.97" fill="#9DED1A" fill-opacity="0.45"/>
<circle cx="214.47" cy="258.47" r="2.47" fill="#480CA7"/>
<circle cx="183.97" cy="84.97" r="0.97" fill="#FFED36" fill-opacity="0.9"/>
<circle cx="76.97" cy="359.97" r="0.97" fill="#FC9E1C" fill-opacity="0.45"/>
<circle cx="16.47" cy="251.47" r="2.47" fill="#BA3E03" fill-opacity="0.65"/>
<circle cx="336.97" cy="37.97" r="0.97" fill="#BA3E03" fill-opacity="0.65"/>
<circle cx="143.47" cy="38.47" r="1.47" fill="#DCBCFA"/>
<circle cx="109.97" cy="255.97" r="1.97" fill="#F54721" fill-opacity="0.45"/>
<circle cx="301.47" cy="68.47" r="2.47" fill="#FC9E1C" fill-opacity="0.9"/>
<circle cx="134.47" cy="79.47" r="2.47" fill="#FC9E1C" fill-opacity="0.9"/>
<path d="M197.079 259.73L195.82 256.615L199.148 257.082L197.079 259.73Z" fill="#4BC8EF"/>
<path d="M144.411 151.887L143.591 150.129L144.704 148.54L146.636 148.709L147.456 150.467L146.343 152.056L144.411 151.887Z" fill="#755FFE" fill-opacity="0.65"/>
<path d="M92.1481 286.076L91.2198 281.301L95.9954 280.373L96.9236 285.148L92.1481 286.076Z" fill="#9DED1A" fill-opacity="0.65"/>
<path d="M293.935 0.438273L292.061 -2.44675L293.623 -5.51182L297.058 -5.69185L298.932 -2.80683L297.37 0.258237L293.935 0.438273Z" fill="#755FFE" fill-opacity="0.65"/>
<path d="M95.972 378.645L93.8574 379.5L92.3915 377.752L93.6 375.818L95.8129 376.37L95.972 378.645Z" fill="#F62584" fill-opacity="0.6"/>
<path d="M304.213 275.431L301.995 278.074L299.351 275.856L301.569 273.213L304.213 275.431Z" fill="#F62584" fill-opacity="0.75"/>
<path d="M53.9376 146.862L57.4164 148.712L57.5539 152.65L54.2126 154.738L50.7338 152.888L50.5963 148.95L53.9376 146.862Z" fill="#DCBCFA" fill-opacity="0.85"/>
<path d="M86.644 124.437L86.5234 127.891L83.2011 128.844L81.2684 125.979L83.3963 123.255L86.644 124.437Z" fill="#DCBCFA" fill-opacity="0.35"/>
<path d="M292.804 196.314L293.523 192.934L296.96 192.572L298.366 195.73L295.797 198.042L292.804 196.314Z" fill="#9DED1A" fill-opacity="0.6"/>
<path d="M72.9294 299.797L75.0615 301.524L73.3349 303.656L71.2028 301.929L72.9294 299.797Z" fill="#FFED36" fill-opacity="0.45"/>
<path d="M205.104 148.536L202.239 148.686L201.211 146.008L203.441 144.203L205.846 145.765L205.104 148.536Z" fill="#F54721" fill-opacity="0.6"/>
<path d="M63.2599 328.227L63.6033 332.152L60.3758 334.412L56.805 332.747L56.4616 328.822L59.689 326.562L63.2599 328.227Z" fill="#FF21FB" fill-opacity="0.85"/>
<path d="M107.601 319.159L109.139 319.878L109.908 318.364L110.054 320.056L111.749 319.965L110.357 320.937L111.284 322.36L109.746 321.641L108.977 323.154L108.831 321.463L107.135 321.554L108.527 320.581L107.601 319.159Z" fill="#9AF5FC" fill-opacity="0.35"/>
<path d="M222.538 55.3976L220.311 56.5323L220.702 59.0008L218.935 57.2336L216.708 58.3682L217.843 56.1413L216.075 54.3741L218.544 54.765L219.679 52.5381L220.07 55.0067L222.538 55.3976Z" fill="#FF21FB" fill-opacity="0.45"/>
<path d="M138.812 357.684L139.697 354.962L137.381 353.279L140.244 353.279L141.128 350.557L142.013 353.279L144.876 353.279L142.56 354.962L143.444 357.684L141.128 356.002L138.812 357.684Z" fill="#03A3F5" fill-opacity="0.75"/>
<path d="M8.36363 163.072L9.78873 160.357L8.65524 157.508L11.3704 158.933L14.2196 157.799L12.7945 160.514L13.928 163.364L11.2129 161.939L8.36363 163.072Z" fill="#FFED36" fill-opacity="0.9"/>
<path d="M66.3596 11.4212L64.0763 12.4377L64.3376 14.9233L62.6652 13.066L60.382 14.0825L61.6317 11.9181L59.9593 10.0607L62.404 10.5804L63.6536 8.41591L63.9149 10.9015L66.3596 11.4212Z" fill="#F54721" fill-opacity="0.6"/>
<path d="M151.174 150.108L150.897 151.859L152.476 152.663L150.725 152.941L150.448 154.692L149.643 153.112L147.892 153.39L149.146 152.136L148.341 150.556L149.921 151.361L151.174 150.108Z" fill="#9AF5FC" fill-opacity="0.75"/>
<path d="M17.0895 332.663L16.95 331.32L15.6033 331.416L16.6966 330.624L15.9402 329.506L17.1729 330.056L17.7632 328.842L17.9027 330.185L19.2494 330.089L18.1561 330.881L18.9125 332L17.6798 331.449L17.0895 332.663Z" fill="#9AF5FC" fill-opacity="0.65"/>
<path d="M22.2109 126.228L23.2914 125.173L23.1941 123.666L24.2488 124.747L25.7555 124.65L24.675 125.704L24.7723 127.211L23.7177 126.13L22.2109 126.228Z" fill="#4BC8EF" fill-opacity="0.65"/>
<path d="M115.105 80.4257L114.074 82.9667L116.581 84.0788L113.865 84.457L114.155 87.1836L112.47 85.0208L110.253 86.6352L111.284 84.0942L108.777 82.9821L111.493 82.6039L111.203 79.8774L112.889 82.0402L115.105 80.4257Z" fill="#4BC8EF" fill-opacity="0.45"/>
<path d="M182.401 214.397L182.786 211.683L180.085 211.21L182.628 210.186L181.687 207.611L183.846 209.301L185.606 207.199L185.221 209.914L187.922 210.386L185.378 211.41L186.319 213.986L184.16 212.295L182.401 214.397Z" fill="#480CA7"/>
<path d="M111.788 316.767L111.821 314.09L109.81 312.323L112.487 312.355L114.254 310.344L114.222 313.021L116.233 314.788L113.556 314.756L111.788 316.767Z" fill="#03A3F5" fill-opacity="0.85"/>
<path d="M241.972 228.645L240.493 228.339L239.299 229.262L239.605 227.784L238.682 226.589L240.16 226.895L241.355 225.972L241.049 227.45L241.972 228.645Z" fill="#DCBCFA" fill-opacity="0.85"/>
</g>
<defs>
<clipPath id="clip0_6080_154094">
<rect width="361" height="388" fill="white"/>
</clipPath>
</defs>
</svg>
