<svg width="301" height="300" viewBox="0 0 301 300" fill="none" xmlns="http://www.w3.org/2000/svg">
<path d="M217.567 201.688C204.826 196.238 191.125 195.241 177.931 192.797C158.065 189.117 138.329 188.046 118.306 188.011C91.7698 187.969 61.4669 192.679 36.5552 205.756C26.0686 211.26 11.9928 220.936 10.6298 236.697C9.93294 244.759 11.989 247.665 18.1019 249.578C27.8822 252.632 39.6746 251.638 49.6687 251.613C65.7681 251.573 81.8693 251.613 97.9687 251.613C118.205 251.613 142.674 248.871 162.068 257.271C158.798 258.06 153.206 258.69 152.425 263.762C161.488 270.931 175 271.034 185.151 271.534C205.618 272.542 225.345 271.778 245.682 268.201C259.909 265.7 288.101 264.217 290.382 238.35C292.512 214.168 265.296 195.69 250.959 190.503C224.121 180.791 193.051 185.957 165.411 185.957" fill="#EFE0D2"/>
<path d="M226.615 263.006C258.85 263.006 284.981 253.567 284.981 241.924C284.981 230.281 258.85 220.842 226.615 220.842C194.38 220.842 168.248 230.281 168.248 241.924C168.248 253.567 194.38 263.006 226.615 263.006Z" fill="#DED0C4"/>
<path d="M134.725 229.855C109.597 223.937 81.9842 223.412 56.1867 224.345C49.1822 224.599 41.166 225.33 34.5624 227.852C32.3422 228.7 21.4031 233.933 22.5657 237.363C24.4233 242.848 47.655 236.997 51.4579 236.491C58.2371 235.592 65.6061 235.244 72.2097 237.48C79.9988 240.118 85.6038 242.327 94.3551 242.377C102.612 242.422 110.773 241.388 118.982 240.899C128.362 240.341 141.489 244.099 150.291 240.496C168.193 233.165 133.491 229.042 130.219 228.35" fill="#DED0C4"/>
<path d="M96.0046 166.154C96.2413 165.984 71.3487 150.33 79.827 149.419C88.5553 148.394 99.0477 155.502 99.0038 155.513C99.2882 155.356 74.7259 135.542 83.8972 132.654C93.5171 129.647 105.886 151.063 105.749 151.084C105.813 151.084 98.4597 133.014 104.389 132.869C110.445 132.718 117.923 149.965 117.86 149.973C117.892 149.973 112.847 136.834 118.104 137.611C123.394 138.406 126.768 146.746 126.756 146.745C127.799 144.912 128.852 143.082 129.916 141.256C130.126 141.134 115.651 127.938 123.026 122.501C130.8 116.919 139.23 130.29 139.077 130.342C139.221 130.307 125.928 112.881 134.412 108.128C143.308 103.355 153.669 135.519 153.503 134.544C153.571 133.568 151.479 112.971 159.373 112.767C167.303 112.621 165.537 136.806 165.545 136.794C165.572 136.819 166.156 105.856 177.065 105.117C187.996 104.47 186.765 128.009 186.751 127.982C186.715 127.982 193.137 109.193 202.123 107.769C211.027 106.381 202.205 130.179 202.274 130.183C202.207 130.166 213.368 117.631 221.489 119.443C229.385 121.197 211.086 140.286 211.258 140.364C211.222 140.332 222.713 135.093 226.506 136.796C230.206 138.425 217.375 147.506 217.44 147.55C217.415 147.55 224.381 143.404 229.339 147.333C234.257 151.256 234.807 153.402 234.813 153.396C234.818 153.39 234.538 138.997 239.318 140.446C244.14 141.915 245.746 154.91 245.721 154.902C245.696 154.894 250.444 142.004 258.002 142.008C265.528 142.048 257.065 158.799 257.105 158.808C256.998 158.772 265.555 145.343 273.962 147.22C282.068 148.986 266.501 164.197 266.708 164.31C266.648 164.268 280.001 157.162 285.608 160.452C291.054 163.615 271.69 171.225 271.792 171.334C271.769 171.294 283.21 169.738 284.304 173.987C285.358 178.143 272.378 176.318 272.383 176.372C272.477 176.33 290.657 184.963 272.956 194.642C265.278 198.842 246.301 186.801 246.24 186.961C246.24 186.961 233.99 184.205 228.543 182.952C223.146 181.597 221.479 170.161 221.439 170.257C221.439 170.272 223.158 173.035 215.262 171.467C207.396 169.749 186.003 165.755 185.972 165.876C185.904 165.702 162.055 170.097 165.335 167.706C168.581 165.173 171.444 164.388 171.444 164.388C171.356 164.11 138.99 178.096 135.372 175.94C131.659 173.47 140.383 163.184 140.389 163.195C140.294 162.825 105.437 168.806 106.655 167.357C107.789 165.54 113.96 164.222 113.963 164.232C113.908 164.142 98.9198 187.353 93.9657 186.95C88.941 186.436 95.9874 166.129 96.0046 166.154Z" fill="#A6BC43"/>
<path d="M285.542 188.409C276.984 186.41 265.76 192.294 265.8 192.311C265.537 192.12 292.169 175.192 283.379 171.292C274.344 167.305 260.052 186.324 259.609 187.122C259.865 186.524 268.773 170.001 262.992 169.205C256.992 168.376 247.626 184.669 247.687 184.688C247.655 184.688 254.144 172.195 248.832 172.378C243.487 172.569 239.197 180.482 239.209 180.48C238.38 178.542 237.54 176.606 236.687 174.673C236.496 174.528 259.815 161.03 253.105 154.801C246.009 148.381 228.669 162.731 228.814 162.8C228.676 162.748 243.842 146.926 235.946 141.25C227.642 135.508 213.736 166.305 214.009 165.354C214.051 164.377 218.444 144.141 210.622 143.056C204.299 142.228 202.436 157.691 201.943 163.8C202.346 156.481 202.793 135.088 193.893 133.467C183.103 131.596 181.684 155.124 181.699 155.099C181.736 155.11 177.463 135.712 168.695 133.287C160.003 130.909 166.098 155.547 166.022 155.544C166.093 155.544 156.408 141.825 148.136 142.713C140.093 143.57 156.131 164.593 155.951 164.652C155.992 164.623 145.167 158.128 141.2 159.394C137.342 160.597 149.073 171.061 149.004 171.097C149.029 171.097 142.571 166.198 137.202 169.545C131.876 172.891 131.093 174.963 131.093 174.955C131.093 174.948 132.983 160.681 128.071 161.582C123.108 162.498 120.053 175.232 120.085 175.228C120.118 175.224 116.836 161.891 109.333 161.04C101.852 160.232 108.379 177.826 108.339 177.826C108.451 177.802 95.903 157.512 87.3388 158.432C79.0859 159.278 98.3982 182.126 98.1863 182.215C98.2512 182.181 85.7772 173.625 79.8304 176.259C74.0649 178.791 92.4514 188.525 92.3387 188.619C92.3674 188.582 81.1725 185.755 79.6089 189.85C78.0931 193.859 91.1971 193.508 91.1857 193.559C91.0978 193.506 76.268 204.999 84.7597 202.694C93.1406 200.17 117.892 194.661 117.934 194.827C117.934 194.827 112.97 198.124 118.528 197.5C124.043 196.759 142.462 193.109 142.491 193.212C142.491 193.227 140.469 195.78 148.493 195.108C151.102 194.844 155.165 194.497 159.457 194.153C157.166 195.801 156.517 197.295 160.102 197.809C167.975 198.933 177.268 195.797 184.792 193.979C190.876 195.035 198.719 196.198 196.835 194.47C196.532 194.173 196.214 193.893 195.88 193.632C203.597 195.423 223.466 200.218 226.557 198.823C230.524 196.786 223.82 195.283 223.812 195.293C223.949 194.934 257.912 204.79 256.866 203.215C256.562 202.578 255.709 201.936 254.703 201.358C260.176 203.737 268.842 207.326 272.141 207.436C277.2 207.492 267.612 203.204 267.593 203.236C267.37 203.026 293.864 190.264 285.542 188.409ZM201.787 166.189C201.788 166.205 201.788 166.222 201.787 166.238C201.787 166.238 201.785 166.219 201.787 166.189ZM249.968 199.29C249.987 199.294 250.006 199.3 250.024 199.308L249.968 199.29Z" fill="#6E863B"/>
<path d="M163.494 215.554C163.494 215.588 163.494 215.623 163.494 215.657C163.494 226.516 189.626 235.321 221.861 235.321C253.731 235.321 279.619 226.714 280.199 216.025C282.381 223.089 280.228 237.161 280.228 240.364C280.228 251.349 254.314 260.253 222.346 260.253C190.378 260.253 164.459 251.347 164.459 240.355C164.459 236.819 160.6 221.724 163.494 215.554Z" fill="#214758"/>
<path d="M280.197 216.023C280.197 215.901 280.226 215.779 280.226 215.657C280.226 204.798 254.094 195.993 221.859 195.993C189.729 195.993 163.668 204.741 163.5 215.552C163.5 215.586 163.5 215.621 163.5 215.655C163.5 226.514 189.632 235.319 221.867 235.319C253.724 235.319 279.611 226.712 280.197 216.023ZM264.416 216.14C264.416 216.209 264.401 216.275 264.397 216.344C264.373 216.635 264.308 216.922 264.206 217.196C264.189 217.241 264.176 217.287 264.157 217.335C264.039 217.618 263.89 217.886 263.714 218.137C263.683 218.181 263.649 218.225 263.616 218.269C263.401 218.559 263.162 218.831 262.901 219.082L262.887 219.093C262.571 219.389 262.235 219.664 261.883 219.916L261.828 219.956C261.428 220.239 261.015 220.501 260.589 220.743L260.495 220.796C258.822 221.706 257.064 222.451 255.247 223.022C247.677 225.504 236.103 227.104 223.113 227.104C210.124 227.104 198.547 225.512 190.976 223.024C189.686 222.608 188.423 222.116 187.192 221.55L187.089 221.501C186.562 221.252 186.073 220.999 185.619 220.737L185.489 220.661C185.063 220.414 184.649 220.145 184.25 219.857L184.231 219.842C183.886 219.588 183.558 219.31 183.251 219.011L183.181 218.944C182.928 218.692 182.7 218.417 182.497 218.123C182.465 218.076 182.432 218.03 182.402 217.982C182.233 217.723 182.096 217.445 181.991 217.154C181.976 217.11 181.967 217.066 181.953 217.022C181.862 216.736 181.813 216.438 181.808 216.138C181.808 216.128 181.808 216.119 181.808 216.107C181.809 216.098 181.809 216.088 181.808 216.079C181.825 215.138 182.291 214.223 183.145 213.353C184.691 211.783 187.514 210.352 191.304 209.139C192.145 208.869 193.036 208.615 193.977 208.376C194.444 208.248 194.922 208.128 195.41 208.015C202.738 206.255 212.453 205.184 223.111 205.184C230.954 205.184 238.285 205.756 244.531 206.77C256.446 208.685 264.411 212.165 264.411 216.14H264.416Z" fill="#285164"/>
<path d="M181.98 217.156C182.084 217.447 182.222 217.725 182.391 217.984C182.222 217.725 182.085 217.447 181.98 217.156Z" fill="white"/>
<path d="M255.237 223.022C257.054 222.45 258.811 221.704 260.485 220.796C258.812 221.706 257.054 222.451 255.237 223.022Z" fill="white"/>
<path d="M183.24 219.013C183.548 219.312 183.875 219.589 184.22 219.844C183.874 219.59 183.547 219.312 183.24 219.013Z" fill="white"/>
<path d="M264.392 216.344C264.367 216.635 264.303 216.922 264.201 217.196C264.184 217.242 264.17 217.287 264.151 217.335C264.033 217.618 263.885 217.886 263.708 218.137C263.678 218.181 263.643 218.225 263.611 218.269C263.396 218.559 263.156 218.831 262.895 219.082L262.882 219.093C262.565 219.389 262.23 219.664 261.878 219.916L261.822 219.956C261.423 220.239 261.009 220.501 260.583 220.743L260.49 220.796C258.816 221.705 257.058 222.45 255.242 223.022C247.668 220.54 236.091 218.944 223.108 218.944C210.124 218.944 198.542 220.537 190.97 223.024C189.681 222.608 188.417 222.116 187.186 221.55L187.083 221.501C186.556 221.253 186.068 220.999 185.613 220.737L185.483 220.661C185.057 220.414 184.644 220.146 184.244 219.857L184.225 219.842C183.881 219.587 183.553 219.31 183.246 219.011L183.175 218.944C182.923 218.692 182.694 218.417 182.492 218.124C182.459 218.076 182.427 218.03 182.396 217.982C182.227 217.723 182.089 217.445 181.986 217.154C181.971 217.11 181.961 217.066 181.948 217.022C181.857 216.736 181.808 216.438 181.803 216.138C181.803 216.129 181.803 216.119 181.803 216.108C181.804 216.098 181.804 216.088 181.803 216.079C181.82 215.138 182.286 214.223 183.139 213.353C184.685 211.783 187.509 210.352 191.299 209.139C192.14 208.87 193.031 208.615 193.971 208.376C194.438 208.248 194.916 208.128 195.405 208.015C202.732 206.255 212.447 205.184 223.106 205.184C230.948 205.184 238.279 205.756 244.526 206.77C256.448 208.693 264.413 212.173 264.413 216.148C264.413 216.216 264.398 216.283 264.394 216.352L264.392 216.344Z" fill="#0E3746"/>
<path d="M265.031 216.638C264.682 219.355 261.81 220.953 259.569 222.003C258.838 222.344 258.092 222.652 257.336 222.936C256.814 223.127 256.091 223.539 255.518 223.526C254.997 223.515 254.373 223.183 253.869 223.034C253.265 222.857 252.659 222.689 252.049 222.532C245.986 220.964 239.715 220.195 233.476 219.779C226.147 219.289 218.792 219.338 211.47 219.928C205.479 220.412 199.454 221.233 193.654 222.847C193.102 223.001 192.553 223.161 192.007 223.333C191.289 223.557 190.999 223.486 190.288 223.238C188.806 222.736 187.366 222.12 185.98 221.394C183.946 220.298 181.125 218.473 181.15 215.838C181.174 213.343 183.897 211.661 185.85 210.657C188.713 209.187 191.86 208.261 194.977 207.513C201.109 206.039 207.422 205.31 213.711 204.939C220.945 204.507 228.2 204.593 235.421 205.197C241.87 205.745 248.403 206.663 254.59 208.616C256.881 209.338 259.155 210.206 261.207 211.461C262.565 212.289 263.981 213.379 264.672 214.857C264.903 215.349 265.17 216.092 265.023 216.646C264.876 217.199 263.616 216.535 263.744 216.058C264.04 214.949 262.931 213.731 262.185 213.091C260.778 211.888 259.016 211.102 257.309 210.432C252.168 208.412 246.591 207.44 241.135 206.751C228.86 205.189 216.432 205.259 204.175 206.959C198.805 207.723 193.276 208.75 188.282 210.936C186.256 211.822 183.656 213.076 182.698 215.216C181.468 217.961 184.756 219.943 186.799 220.943C187.331 221.205 187.875 221.445 188.423 221.671C189.091 221.945 190.101 222.524 190.831 222.554C191.144 222.568 190.811 222.583 190.873 222.539L190.748 222.461L190.957 222.394C191.196 222.287 191.448 222.209 191.707 222.163C192.264 221.995 192.826 221.835 193.389 221.686C195.701 221.067 198.045 220.582 200.403 220.179C206.212 219.221 212.08 218.666 217.966 218.519C229.303 218.177 241.011 218.753 252.025 221.648C253.061 221.919 254.088 222.22 255.106 222.551L254.703 222.562C256.528 221.879 258.345 221.256 260.048 220.285C261.675 219.353 263.485 218.055 263.75 216.056C263.825 215.487 265.096 216.134 265.031 216.638Z" fill="#285164"/>
<path d="M268.493 229.916C267.949 233.079 266.711 236.428 265.211 239.664C265.931 239.297 266.658 238.953 267.366 238.574C268.062 237.04 268.671 235.469 269.189 233.868C269.436 233.091 269.634 232.304 269.802 231.546C269.882 230.83 270.203 229.929 269.777 229.515C269.777 229.494 269.869 229.419 269.795 229.452L269.644 229.502L269.302 229.624L268.493 229.916Z" fill="#285164"/>
<path d="M267.719 240.147C269.482 240.872 271.283 241.5 273.114 242.029C274.053 242.315 275.023 242.51 276.025 242.726C277.073 242.873 278.005 243.108 279.379 242.966L278.942 243.251L278.581 243.474C278.329 243.633 278.123 243.747 277.908 243.869C277.478 244.11 277.035 244.366 276.63 244.564C272.854 243.934 269.529 242.846 266.321 241.51L267.719 240.147Z" fill="#285164"/>
<path d="M260.579 233.314C259.152 236.526 257.494 239.63 255.615 242.6L257.906 241.802C258.814 240.315 259.671 238.842 260.478 237.382C261.253 235.855 262.005 234.414 262.643 232.906C261.982 233.074 261.266 233.179 260.579 233.314Z" fill="#285164"/>
<path d="M258.051 243.398C259.664 244.328 261.325 245.194 263.049 246.071C264.767 246.88 266.539 247.699 268.378 248.413C267.572 248.715 266.766 248.927 265.961 249.177C264.294 248.522 262.677 247.772 261.102 246.998C259.533 246.254 258 245.423 256.507 244.572L258.051 243.398Z" fill="#285164"/>
<path d="M251.723 235.773C250.822 237.242 249.876 238.72 248.886 240.208C247.88 241.643 246.835 243.086 245.751 244.536L248.107 243.932C249.168 242.596 250.172 241.179 251.14 239.788C252.108 238.396 253.036 237.018 253.889 235.576C253.166 235.649 252.46 235.748 251.723 235.773Z" fill="#285164"/>
<path d="M248.094 245.542C249.621 246.655 251.171 247.691 252.771 248.701C254.371 249.711 256.017 250.746 257.714 251.662C256.908 251.832 256.101 252.025 255.295 252.151C253.747 251.26 252.238 250.365 250.767 249.467C249.295 248.528 247.855 247.558 246.452 246.59L248.094 245.542Z" fill="#285164"/>
<path d="M242.451 237.394C241.406 238.784 240.324 240.179 239.205 241.58C238.086 242.968 236.914 244.291 235.734 245.654L238.132 245.246C239.299 244.009 240.423 242.64 241.507 241.349C242.592 240.059 243.663 238.764 244.663 237.392C243.933 237.419 243.195 237.419 242.451 237.394Z" fill="#285164"/>
<path d="M238.006 246.846C239.438 248.083 240.897 249.203 242.397 250.364C243.898 251.525 245.436 252.699 247.017 253.757C246.21 253.871 245.406 253.948 244.6 254.014C241.704 251.996 238.942 249.954 236.288 247.754L238.006 246.846Z" fill="#285164"/>
<path d="M232.953 238.314C230.645 240.922 228.213 243.57 225.662 246.114C226.472 246.055 227.277 245.945 228.085 245.84C230.567 243.396 232.949 241.013 235.183 238.448L232.953 238.314Z" fill="#285164"/>
<path d="M227.844 247.432C230.542 249.96 233.356 252.565 236.317 254.938L233.911 255.047C231.193 252.802 228.583 250.557 226.084 248.251C226.668 248.005 227.258 247.709 227.844 247.432Z" fill="#285164"/>
<path d="M223.315 238.574C222.078 239.828 220.813 241.09 219.522 242.338L215.568 245.966L218.004 245.84C220.62 243.619 223.14 241.199 225.559 238.891L223.315 238.574Z" fill="#285164"/>
<path d="M217.676 247.407C220.221 250.189 222.886 252.739 225.662 255.414L223.277 255.334L219.497 251.788L215.87 248.111L217.676 247.407Z" fill="#285164"/>
<path d="M213.633 238.344C211.031 240.708 208.321 243.024 205.502 245.292C206.311 245.326 207.129 245.292 207.94 245.28C210.679 243.15 213.304 241.019 215.863 238.738L213.633 238.344Z" fill="#285164"/>
<path d="M207.522 246.846C209.914 249.679 212.436 252.554 215.061 255.259L212.686 255.087C210.248 252.584 207.913 250.015 205.672 247.472L207.522 246.846Z" fill="#285164"/>
<path d="M204.049 237.535C201.313 239.792 198.496 241.871 195.514 243.944L197.944 244.104C200.808 242.235 203.578 240.124 206.218 238.098L204.049 237.535Z" fill="#285164"/>
<path d="M197.421 245.624C199.607 248.692 201.965 251.573 204.449 254.53L202.064 254.177C199.762 251.574 197.576 248.831 195.529 246.109L197.421 245.624Z" fill="#285164"/>
<path d="M194.67 236.111C191.779 238.159 188.784 240.056 185.697 241.794L188.097 242.176C191.108 240.549 194.015 238.682 196.759 236.831C196.037 236.622 195.355 236.346 194.67 236.111Z" fill="#285164"/>
<path d="M187.434 243.636C189.343 246.882 191.493 249.957 193.791 253.086C192.997 252.943 192.201 252.728 191.407 252.552C189.278 249.761 187.3 246.844 185.5 243.961L187.434 243.636Z" fill="#285164"/>
<path d="M185.624 233.921C182.599 235.705 179.447 237.264 176.193 238.585L178.513 239.265C180.105 238.617 181.669 237.884 183.162 237.165C184.689 236.401 186.159 235.607 187.581 234.811L185.624 233.921Z" fill="#285164"/>
<path d="M177.69 240.641C178.454 242.359 179.303 244.011 180.204 245.731C181.117 247.405 182.091 249.049 183.12 250.731L180.747 249.956C178.87 246.986 177.194 243.894 175.731 240.7L177.69 240.641Z" fill="#285164"/>
<path d="M177.274 230.809C174.246 232.146 170.974 233.308 167.591 233.831C168.234 234.252 168.901 234.635 169.59 234.977C172.923 234.314 176.037 233.186 178.984 231.922L177.274 230.809Z" fill="#285164"/>
<path d="M168.496 236.155C169.317 239.828 170.764 243.493 172.472 247.107L170.118 245.962C168.564 242.608 167.238 239.213 166.529 235.712C167.175 235.9 167.832 236.048 168.496 236.155Z" fill="#285164"/>
<path d="M144.742 257.319L148.239 258.411C138.946 252.302 119.807 253.913 109.16 254.377C105.325 254.545 87.7383 254.402 86.6959 260.013C85.4799 266.559 121.701 267.345 125.471 267.439C132.726 267.618 140.758 267.533 147.737 264.923C152.623 263.094 149.406 259.43 144.742 257.319Z" fill="#EFE0D2"/>
<path d="M79.6147 255.906C75.0328 255.44 70.2601 254.57 66.02 256.653C61.3447 258.944 60.8655 260.963 65.9723 262.571C68.7252 263.434 87.2186 261.958 80.1167 255.912" fill="#EFE0D2"/>
<path d="M175.453 123.085C176.144 123.085 176.705 122.524 176.705 121.833C176.705 121.141 176.144 120.58 175.453 120.58C174.761 120.58 174.2 121.141 174.2 121.833C174.2 122.524 174.761 123.085 175.453 123.085Z" fill="#424647"/>
<path d="M120.024 119.496C120.024 119.496 131.043 137.862 135.384 138.53C139.726 139.198 172.448 131.518 172.448 131.518L175.452 139.198C175.452 139.198 151.075 151.225 135.715 153.556C120.354 155.887 106.33 129.181 106.33 129.181" fill="#CB955F"/>
<path d="M120.112 99.5729C117.743 86.4937 108.657 85.1478 108.657 85.1478L103.033 119.527C103.033 119.527 98.8007 132.207 106.649 132.921C117.46 133.904 127.17 126.43 127.17 126.43C127.17 126.43 122.481 112.65 120.112 99.5729Z" fill="#D6D9DC"/>
<path d="M113.58 219.979C114.311 220.067 115.044 220.155 115.777 220.237C118.27 220.51 120.765 220.537 123.27 220.54C127.537 220.54 131.811 220.433 136.072 220.628C132.094 218.826 128.806 217.156 128.272 215.981C127.086 213.372 143.592 157.077 142.281 151.836C139.824 142.006 96.3252 147.67 96.3252 147.67L97.3065 168.308H116.97C116.97 168.308 115.731 198.857 113.58 219.979Z" fill="#DCA86E"/>
<path d="M116.267 229.975C117.222 230.03 118.203 230.051 119.196 230.051C123.259 230.051 127.052 230.242 131.013 231.21C132.999 231.697 135.047 232.102 137.122 232.401C141.217 232.564 145.276 232.508 148.586 232.037C157.177 230.807 155.222 226.384 150.305 225.647C147.836 225.273 143.697 223.664 139.688 221.646C139.143 221.371 138.604 221.089 138.071 220.8C137.418 220.449 136.782 220.088 136.162 219.723C135.644 219.419 135.142 219.114 134.656 218.809C134.159 218.496 133.68 218.183 133.226 217.869C132.772 217.556 132.283 217.207 131.861 216.882C131.2 216.384 130.577 215.837 129.996 215.248C127.059 212.194 125.326 219.916 121.886 219.179C118.446 218.442 111.815 214.508 111.815 214.508L112.552 228.759C112.552 228.759 113.358 229.297 116.267 229.975Z" fill="#97BDDA"/>
<path d="M109.104 229.252L96.3249 224.828C96.3249 224.828 51.7725 196.478 36.3643 189.277C34.0256 196.654 29.6958 208.425 37.5937 214.477C38.2638 214.991 38.9644 215.477 39.6708 215.957C38.7735 213.532 38.6284 211.566 40.297 211.06C45.211 209.586 80.5978 242.023 103.205 239.566C117.025 238.064 109.104 229.252 109.104 229.252Z" fill="#CB955F"/>
<path d="M105.665 48.6307C103.526 51.8303 99.6452 54.7398 95.5273 54.2644C97.7419 56.0112 99.294 56.7577 102.173 56.7653C100.667 58.388 98.5456 59.3559 96.3463 59.2471C97.3238 61.4636 98.5342 62.3284 100.928 62.8839C100.083 63.1028 99.2261 63.2774 98.3623 63.407C101.207 70.3752 106.738 72.6031 113.482 68.4871C117.356 66.1237 120.575 63.3994 121.882 58.9188C122.3 57.4965 123.539 48.5581 121.869 48.6307" fill="#37375D"/>
<path d="M96.8178 200.745C96.8178 200.745 120.899 217.455 116.97 228.759C113.041 240.063 106.65 240.555 99.7673 237.606C92.8851 234.656 73.7197 217.455 73.7197 217.455" fill="#DCA86E"/>
<path d="M74.7008 142.751L124.832 143.734L112.545 181.904L63.8877 174.696" fill="#397599"/>
<path d="M72.2441 168.798L80.5983 175.188L106.155 201.238C106.155 201.238 92.8852 211.066 82.5646 216.965C72.2441 222.864 63.8976 221.879 63.8976 221.879L41.2806 198.288C41.2806 198.288 19.1638 182.561 18.6713 168.798C18.1787 155.036 29.975 147.174 29.975 147.174" fill="#4882B6"/>
<path d="M103.697 78.3667C103.697 78.3667 81.5806 74.9303 57.4975 95.0769C33.4143 115.224 14.2471 154.545 14.2471 154.545C14.2471 154.545 19.7643 166.326 41.2798 171.255C88.461 182.068 86.9967 149.139 86.9967 149.139C86.9967 149.139 87.4874 148.157 87.4874 146.191C87.4874 144.225 116.721 117.194 120.161 104.907C123.602 92.6199 103.697 78.3667 103.697 78.3667Z" fill="#ECECED"/>
<path d="M110.082 68.9319L102.342 79.0501C102.342 79.0501 99.7651 94.0918 106.161 99.0058C112.556 103.92 117.294 100.333 117.132 94.424C117.029 90.6822 122.38 85.73 122.38 85.73" fill="#DCA86E"/>
<path d="M88.9538 143.734C82.9249 150.555 67.3945 151.08 59.2083 150.515C51.8106 150.003 44.0082 147.913 37.376 144.765C44.1762 153.669 66.3789 157.014 75.951 151.281C65.0291 157.84 55.2584 158.258 42.8092 159.07C53.2844 162.315 65.0845 163.46 75.3821 158.741C79.6069 156.805 87.9821 150.479 86.0043 146.191" fill="#D6D9DC"/>
<path d="M112.134 60.5855L112.81 64.0485L112.976 63.9951C127.295 57.2312 120.849 45.6354 130.731 44.4537C137.483 43.6461 145.752 44.8546 147.13 52.972L147.279 52.9243C147.279 52.9243 146.993 93.9353 125.897 92.5531C104.105 91.1232 109.097 70.0106 109.097 70.0106C109.097 70.0106 102.138 71.0263 103.528 61.9524C104.918 52.8785 111.459 57.1224 112.134 60.5855Z" fill="#DCA86E"/>
<path d="M103.207 49.8602L150.388 59.6901C150.388 59.6901 159.519 34.5741 131.87 28.7266C106.319 23.32 103.207 49.8602 103.207 49.8602Z" fill="#6DB8DA"/>
<path d="M80.5979 175.188C80.5979 175.188 71.587 184.525 61.4306 188.458C51.2743 192.391 72.5702 177.645 72.5702 177.645C72.5702 177.645 59.7926 179.936 51.6007 182.561C43.4088 185.186 76.8294 171.748 78.7881 171.748" fill="#397599"/>
<path d="M110.825 63.1303C110.991 59.4839 106.613 57.7466 105.67 61.6545C104.813 65.1883 107.312 66.6182 110.076 67.252C107.213 67.6147 106.529 62.7446 108.778 61.6813C107.551 63.346 109.823 64.3158 110.582 62.884" fill="#B97945"/>
<path d="M122.374 61.4102C122.374 61.4102 129.745 60.1807 130.238 61.1639C130.73 62.1471 131.221 64.1135 130.484 64.1135C129.747 64.1135 123.111 62.884 123.111 62.884" fill="#37375D"/>
<path d="M131.711 68.0443C130.728 68.0443 122.374 66.8167 122.374 66.8167C122.374 66.8167 123.569 69.6803 125.568 70.0106C129.991 70.7475 131.711 68.0443 131.711 68.0443Z" fill="white"/>
<path d="M129.596 67.8209C129.024 67.7484 128.382 67.6644 127.72 67.5746C126.095 67.672 124.806 68.5292 124.625 69.6269C124.912 69.814 125.232 69.9437 125.568 70.0087C128.445 70.4879 130.173 69.5143 131.034 68.7736C130.651 68.3306 130.154 68.0011 129.596 67.8209Z" fill="#2B241D"/>
<path d="M144.818 70.339C143.974 70.339 136.8 69.1096 136.8 69.1096C136.8 69.1096 137.827 71.9732 139.545 72.3035C143.34 73.0423 144.818 70.339 144.818 70.339Z" fill="white"/>
<path d="M143 70.1156C142.506 70.0431 141.956 69.9572 141.387 69.8674C139.989 69.9667 138.882 70.822 138.726 71.9216C138.966 72.1055 139.242 72.2357 139.537 72.3034C142.009 72.7845 143.494 71.809 144.235 71.0683C143.924 70.638 143.495 70.3071 143 70.1156Z" fill="#2B241D"/>
<path d="M136.572 65.1653C136.184 65.9675 135.844 66.7917 135.552 67.6338C135.328 68.2925 135.167 68.9715 135.073 69.6612C134.997 70.2531 134.982 70.8513 135.029 71.4462C135.086 72.1128 135.183 72.7753 135.321 73.4298C135.394 73.7925 135.472 74.1552 135.552 74.5161C135.633 74.8769 135.711 75.2549 135.81 75.6195C135.885 75.8906 135.971 76.1579 136.049 76.427C136.083 76.5397 136.114 76.6542 136.14 76.7688C136.152 76.8203 136.163 76.8738 136.171 76.9253C136.179 76.9769 136.171 77.0227 136.171 76.9253C136.171 76.9501 136.171 76.975 136.171 77.0017C136.174 77.0487 136.174 77.0959 136.171 77.143C136.171 77.164 136.171 77.185 136.171 77.206C136.171 77.227 136.171 77.2308 136.171 77.2422C136.173 77.2194 136.173 77.1964 136.171 77.1735C136.171 77.1735 136.171 77.1888 136.171 77.1964C136.164 77.2391 136.154 77.2812 136.14 77.3224C136.14 77.3434 136.123 77.3644 136.118 77.3854C136.118 77.3701 136.161 77.29 136.137 77.3396L136.119 77.3759C136.097 77.4181 136.071 77.4589 136.043 77.498C136.043 77.498 136.032 77.5114 136.032 77.5152C136.032 77.519 136.087 77.4465 136.07 77.4656L136.045 77.4942C136.028 77.5152 136.009 77.5362 135.99 77.5553C135.949 77.5972 135.907 77.6368 135.862 77.6737L135.825 77.7023C135.801 77.7252 135.879 77.6641 135.869 77.668L135.848 77.6851L135.762 77.7462C135.633 77.8317 135.497 77.9088 135.358 77.9772C135.274 78.0192 135.188 78.0593 135.1 78.0975L135.033 78.1261C135.15 78.0746 135.096 78.1013 135.069 78.1109L134.985 78.1433C134.742 78.2317 134.491 78.2956 134.235 78.3342L134.134 78.3495H134.168H134.109C134.035 78.359 133.958 78.3667 133.884 78.3724C133.735 78.382 133.586 78.3858 133.439 78.3839C133.292 78.382 133.128 78.3724 132.973 78.3571L132.861 78.3438H132.914C132.903 78.3457 132.892 78.3457 132.882 78.3438L132.817 78.3342C132.738 78.3209 132.66 78.3075 132.584 78.2903C132.432 78.2575 132.281 78.2167 132.133 78.1681C132.059 78.1414 131.984 78.1147 131.91 78.0841C131.835 78.0536 131.977 78.1147 131.925 78.0841L131.874 78.0612L131.761 78.0078C131.619 77.9387 131.482 77.8583 131.352 77.7672C131.32 77.7462 131.289 77.7233 131.259 77.7004C131.228 77.6775 131.33 77.7577 131.27 77.71L131.219 77.668C131.156 77.6169 131.096 77.5627 131.039 77.5057C130.986 77.4522 130.932 77.3969 130.885 77.3396C130.858 77.311 130.833 77.2785 130.808 77.248C130.784 77.2174 130.856 77.311 130.831 77.2785L130.814 77.2575L130.774 77.2021C130.727 77.1251 130.653 77.068 130.566 77.0418C130.499 77.0229 130.428 77.0245 130.362 77.0463C130.296 77.0682 130.238 77.1093 130.196 77.1644C130.154 77.2195 130.129 77.286 130.125 77.3553C130.12 77.4247 130.137 77.4937 130.173 77.5534C130.391 77.8601 130.66 78.1279 130.967 78.3457C131.25 78.5426 131.56 78.6988 131.887 78.8096C132.509 79.0218 133.167 79.1075 133.823 79.0616C134.134 79.0454 134.442 79.0013 134.745 78.9299C135.036 78.8563 135.319 78.7534 135.589 78.6225C136.098 78.3839 136.656 78.0498 136.82 77.4675C136.956 76.996 136.791 76.4939 136.654 76.0433C136.564 75.7512 136.475 75.4572 136.404 75.1613C136.31 74.7795 136.228 74.3881 136.142 74.0006C136.063 73.6417 135.99 73.2821 135.921 72.922C135.89 72.7578 135.862 72.5936 135.835 72.4294C135.822 72.3492 135.81 72.271 135.799 72.1908L135.782 72.0762C135.782 72.0654 135.782 72.0546 135.782 72.0438C135.782 72.0075 135.782 72.1049 135.782 72.0972C135.777 72.0733 135.773 72.0491 135.772 72.0247C135.691 71.4231 135.668 70.8152 135.701 70.2092C135.701 70.0583 135.724 69.9075 135.743 69.7586V69.7032C135.743 69.6861 135.755 69.6192 135.743 69.6861C135.732 69.7529 135.743 69.6861 135.743 69.6689C135.743 69.6517 135.743 69.6269 135.743 69.6059C135.755 69.5257 135.768 69.4455 135.782 69.3653C135.841 69.037 135.919 68.7105 136.011 68.3879C136.114 68.0252 136.234 67.6662 136.368 67.3131C136.44 67.1222 136.517 66.9312 136.595 66.7308C136.616 66.6831 136.635 66.6353 136.656 66.5857C136.677 66.5361 136.656 66.5991 136.656 66.6067C136.66 66.5956 136.664 66.5847 136.669 66.5742L136.709 66.4788L136.847 66.1638C136.944 65.9442 137.038 65.7285 137.147 65.5109C137.191 65.4293 137.203 65.3339 137.181 65.2436C137.163 65.1774 137.126 65.118 137.074 65.0729C137.023 65.0277 136.959 64.9989 136.891 64.9899C136.823 64.9809 136.754 64.9922 136.692 65.0224C136.631 65.0526 136.58 65.1004 136.545 65.1596L136.572 65.1653Z" fill="#B97945"/>
<path d="M124.341 54.2836C124.341 54.2836 128.64 64.4609 136.135 67.8801C145.474 72.1412 167.219 72.0801 163.659 69.8465C151.862 62.4755 150.388 59.6901 150.388 59.6901" fill="#8FC7E0"/>
<path d="M154.405 229.263C153.601 230.151 151.91 230.941 148.993 231.363C145.646 231.846 141.547 231.901 137.403 231.745C135.303 231.438 133.231 231.025 131.225 230.527C127.216 229.534 123.384 229.347 119.278 229.345C118.85 229.345 117.733 229.38 116.724 229.406C116.387 230.32 116.005 231.216 115.578 232.09C116.878 232.075 118.575 232.02 119.274 232.02C123.381 232.02 127.218 232.211 131.221 233.203C133.228 233.7 135.301 234.114 137.399 234.42C141.538 234.584 145.642 234.528 148.989 234.047C154.795 233.2 155.827 230.916 154.405 229.263Z" fill="#C3BFBE"/>
<path d="M128.108 220.076C126.47 222.207 124.996 224.009 126.47 223.681C127.944 223.352 128.927 220.569 130.893 219.422C131.691 218.956 132.642 218.467 133.501 218.049C133.411 217.988 133.31 217.927 133.222 217.858C132.741 217.526 132.279 217.196 131.857 216.871L131.792 216.818C130.737 217.539 129.133 218.744 128.108 220.076Z" fill="#E2DFDC"/>
<path d="M135.645 220.405C135.918 220.244 136.217 220.082 136.515 219.92C136.397 219.853 136.275 219.788 136.158 219.729C135.744 219.487 135.349 219.242 134.954 218.998C134.178 219.607 133.474 220.302 132.854 221.069C131.216 223.2 129.74 225.002 131.216 224.674C132.691 224.345 133.678 221.552 135.645 220.405Z" fill="#E2DFDC"/>
<path d="M139.879 221.735L139.688 221.642C139.262 221.426 138.842 221.205 138.424 220.981C137.95 221.406 137.513 221.871 137.118 222.371C135.48 224.5 134.007 226.302 135.48 225.976C136.954 225.649 137.93 222.892 139.879 221.735Z" fill="#E2DFDC"/>
<path d="M86.7334 154.201C86.8136 154.089 86.7926 154.106 86.7334 154.201Z" fill="#9A966F"/>
<path d="M108.671 75.8123C108.602 77.7749 108.774 80.3941 109.486 83.8152C110.454 88.4638 113.877 91.9269 117.136 94.2598C117.155 93.0686 117.709 91.7685 118.43 90.5486C110.796 87.1218 108.919 80.5965 108.671 75.8123Z" fill="#CB955F"/>
<path d="M132.901 82.8225C131.908 82.6316 129.329 82.6316 126.75 81.2361C124.17 79.8405 123.178 78.655 123.178 78.655C123.178 78.655 123.773 82.8225 126.353 83.6186C128.932 84.4147 131.709 84.4128 131.709 84.4128" fill="#B97C47"/>
<path d="M171.039 136.959C171.039 136.959 171.593 140.901 176.121 138.868C182.803 135.863 186.606 126.959 185.22 121.982C184.51 119.427 182.07 119.956 182.07 119.956" fill="#CB955F"/>
<path d="M172.559 134.742L142.617 136.792C141.586 136.81 138.751 134.502 139.006 133.528L142.996 118.333C143.252 117.36 144.302 116.548 145.333 116.531L177.477 116.006C178.506 115.989 181.354 117.713 181.104 118.679L174.899 132.932C174.638 133.914 173.588 134.725 172.559 134.742Z" fill="#424647"/>
<path d="M176.457 134.486L143.147 137.002C142.118 137.02 141.485 136.239 141.74 135.263L145.728 120.069C145.984 119.095 147.036 118.286 148.065 118.269L180.21 117.742C181.239 117.726 181.871 118.505 181.617 119.483L178.792 132.682C178.536 133.66 177.488 134.471 176.457 134.486Z" fill="#4B5052"/>
<path d="M184.223 117.509C184.223 117.509 182.106 112.889 180.342 112.423C178.578 111.957 171.348 113.555 171.369 115.155C171.39 116.755 178.523 115.829 178.523 115.829L180.733 117.954" fill="#DCA86E"/>
<path d="M185.554 123.419C185.554 123.419 187.749 118.438 185.821 117.501C183.893 116.564 176.054 116.81 176.455 118.918C176.856 121.025 183.467 121.254 183.467 121.254L185.554 123.419Z" fill="#DCA86E"/>
<path d="M185.792 127.909C185.792 127.909 188.677 124.784 185.219 123.501C182.598 122.528 177.501 122.761 177.791 124.504C178.127 126.527 185.792 127.909 185.792 127.909Z" fill="#DCA86E"/>
<path d="M184.742 128.986C183.875 128.641 177.333 126.394 177.031 128.635C176.73 130.876 183.425 132.003 183.425 132.003C183.846 131.972 184.251 131.833 184.602 131.598C184.953 131.364 185.238 131.043 185.428 130.666C186.05 129.391 184.742 128.986 184.742 128.986Z" fill="#DCA86E"/>
<path d="M137.763 57.1242C137.797 57.1288 137.83 57.1351 137.862 57.1433C137.985 57.1834 138.109 57.214 138.233 57.2445C138.427 57.2861 138.618 57.3403 138.806 57.4068C140.243 51.3149 143.96 30.9487 129.703 28.6674C115.112 26.3326 107.447 45.1333 105.48 50.4157C105.646 50.3979 105.813 50.4148 105.971 50.4653C106.107 50.5093 106.246 50.5455 106.385 50.5837C108.915 43.4361 116.068 26.7067 129.378 28.8277C142.587 30.9487 139.588 49.4879 137.763 57.1242Z" fill="#8FC7E0"/>
<path d="M28.3389 218.48C28.3217 217.957 28.3064 217.442 28.2969 216.938C28.3064 217.446 28.3217 217.957 28.3389 218.48Z" fill="#97BDDA"/>
<path d="M37.2216 233.24C32.5271 233.24 30.4424 230.847 29.4688 228.119C30.4424 230.847 32.5233 233.24 37.2216 233.24C45.297 233.24 49.1457 233.24 49.1782 229.839C49.1457 233.238 45.297 233.24 37.2216 233.24Z" fill="#97BDDA"/>
<path d="M32.4336 193.502C32.4928 193.408 32.552 193.311 32.6073 193.239C32.55 193.321 32.4928 193.408 32.4336 193.502Z" fill="#97BDDA"/>
<path d="M32.2402 193.813C32.3013 193.712 32.3586 193.622 32.4159 193.529C32.3586 193.618 32.3013 193.712 32.2402 193.813Z" fill="#97BDDA"/>
<path d="M28.7148 206.396C28.7473 206.108 28.7798 205.823 28.816 205.546C28.7798 205.825 28.7473 206.108 28.7148 206.396Z" fill="#97BDDA"/>
<path d="M28.8516 205.254C28.8917 204.953 28.9337 204.659 28.9757 204.37C28.9337 204.655 28.8917 204.953 28.8516 205.254Z" fill="#97BDDA"/>
<path d="M28.3877 210.52C28.4087 210.117 28.4335 209.723 28.4583 209.336C28.4278 209.723 28.403 210.117 28.3877 210.52Z" fill="#97BDDA"/>
<path d="M30.2383 198.563C30.2917 198.383 30.3471 198.208 30.4025 198.036C30.3471 198.208 30.2975 198.383 30.2383 198.563Z" fill="#97BDDA"/>
<path d="M31.1699 195.955C31.2272 195.82 31.2845 195.688 31.3417 195.56C31.2819 195.688 31.2246 195.82 31.1699 195.955Z" fill="#97BDDA"/>
<path d="M30.0283 199.287C30.0741 199.124 30.118 198.966 30.1639 198.811C30.118 198.966 30.0741 199.119 30.0283 199.287Z" fill="#97BDDA"/>
<path d="M28.4736 209.031C28.5004 208.664 28.529 208.304 28.5595 207.952C28.529 208.299 28.5004 208.659 28.4736 209.031Z" fill="#97BDDA"/>
<path d="M31.8359 194.537C31.8932 194.426 31.9505 194.319 32.0078 194.216C31.9505 194.32 31.8932 194.427 31.8359 194.537Z" fill="#97BDDA"/>
<path d="M28.5791 207.643C28.6116 207.299 28.644 206.959 28.6803 206.629C28.6516 206.959 28.6192 207.299 28.5791 207.643Z" fill="#97BDDA"/>
<path d="M28.2891 213.425C28.2891 212.984 28.3062 212.551 28.3177 212.127C28.3062 212.551 28.2948 212.984 28.2891 213.425Z" fill="#97BDDA"/>
<path d="M33.4526 192.2C33.135 192.509 32.8538 192.854 32.6145 193.227C32.7901 192.969 32.9448 192.767 33.0727 192.612L33.2254 192.765C31.4576 196.614 29.3232 204.563 30.3408 219.805C30.5851 223.484 30.9135 230.618 39.0233 230.618C43.9564 230.618 47.3049 230.618 49.1778 229.84C49.1778 229.824 49.1778 229.813 49.1778 229.799C49.1778 227.89 46.9899 224.173 45.3309 220.901C41.7266 221.615 32.3988 221.069 32.8035 219.479C36.7897 219.359 40.6308 219.542 44.5864 219.374C44.2399 218.651 43.9471 217.903 43.7101 217.136C39.9206 217.57 32.92 216.988 33.2865 215.546C37.1276 215.43 39.997 215.615 43.5593 215.477C43.5962 215.322 43.6687 215.178 43.7712 215.056C45.4894 213.089 46.4745 212.597 45.2469 210.386C44.0194 208.175 39.0214 207.19 37.3834 209.975C36.3792 211.694 35.6652 202.687 37.874 199.983C38.5998 199.066 39.4997 198.301 40.5219 197.732C39.3956 196.889 37.1161 195.125 34.4358 192.748L33.4526 192.2ZM33.7867 223.41C38.107 223.28 42.2516 223.52 46.5604 223.267C46.7895 223.703 47.0135 224.136 47.2324 224.567C44.7601 225.655 33.34 225.168 33.7867 223.41Z" fill="#97BDDA"/>
<path d="M29.207 202.956C29.2452 202.738 29.2853 202.524 29.3254 202.312C29.2853 202.524 29.2452 202.746 29.207 202.956Z" fill="#97BDDA"/>
<path d="M28.4202 220.391C28.391 219.849 28.3674 219.318 28.3496 218.797C28.3751 219.319 28.3986 219.851 28.4202 220.391Z" fill="#97BDDA"/>
<path d="M28.2926 216.755C28.285 216.279 28.2799 215.812 28.2773 215.355C28.2799 215.814 28.285 216.28 28.2926 216.755Z" fill="#97BDDA"/>
<path d="M30.4883 197.795C30.5405 197.64 30.592 197.489 30.6429 197.343C30.5869 197.491 30.5354 197.641 30.4883 197.795Z" fill="#97BDDA"/>
<path d="M31.4062 195.415C31.4559 195.308 31.5036 195.203 31.5533 195.102C31.5036 195.203 31.4559 195.3 31.4062 195.415Z" fill="#97BDDA"/>
<path d="M28.2754 215.122C28.2754 214.651 28.2754 214.193 28.2754 213.74C28.2773 214.2 28.2754 214.651 28.2754 215.122Z" fill="#97BDDA"/>
<path d="M28.5367 222.409C28.4985 221.821 28.4642 221.245 28.4355 220.676C28.4642 221.252 28.4985 221.837 28.5367 222.409Z" fill="#97BDDA"/>
<path d="M33.2883 215.546C32.9217 216.988 39.9223 217.57 43.7119 217.136C43.521 216.468 43.4446 215.896 43.5553 215.477C39.9987 215.615 37.1293 215.43 33.2883 215.546Z" fill="#E2DFDC"/>
<path d="M32.8057 219.479C32.401 221.069 41.7288 221.615 45.3332 220.901C45.0659 220.377 44.819 219.868 44.5924 219.374C40.633 219.546 36.7881 219.355 32.8057 219.479Z" fill="#E2DFDC"/>
<path d="M47.2329 224.567C47.014 224.138 46.79 223.704 46.5609 223.267C42.2521 223.521 38.1074 223.28 33.7872 223.41C33.3404 225.168 44.7606 225.655 47.2329 224.567Z" fill="#E2DFDC"/>
<path d="M30.3407 219.805C29.3232 204.563 31.4575 196.614 33.2253 192.765L33.0726 192.612C32.9447 192.767 32.7901 192.969 32.6144 193.227V193.238C32.5591 193.321 32.4999 193.408 32.4407 193.502L32.4235 193.529C32.3663 193.618 32.309 193.72 32.2479 193.813L32.2364 193.832C32.1792 193.93 32.12 194.023 32.0608 194.138L32.015 194.218C31.9577 194.321 31.9004 194.428 31.8432 194.539L31.7859 194.647C31.7324 194.752 31.6771 194.861 31.6217 194.976C31.6007 195.018 31.5797 195.06 31.5606 195.102C31.511 195.203 31.4633 195.308 31.4136 195.415C31.3926 195.463 31.3697 195.51 31.3487 195.56C31.2914 195.687 31.2342 195.819 31.1769 195.955L31.1024 196.135C31.0452 196.274 30.9879 196.415 30.9306 196.562C30.9058 196.623 30.8829 196.688 30.86 196.753C30.8142 196.87 30.7703 196.99 30.7263 197.112C30.6977 197.188 30.671 197.267 30.6423 197.347C30.5914 197.493 30.5399 197.644 30.4877 197.799C30.461 197.878 30.4362 197.958 30.4094 198.04C30.3541 198.212 30.2987 198.387 30.2453 198.567L30.1708 198.815C30.125 198.97 30.0811 199.128 30.0353 199.29C30.0085 199.391 29.9799 199.496 29.9513 199.601C29.9073 199.769 29.8615 199.941 29.8176 200.115C29.7966 200.207 29.7737 200.296 29.7508 200.388C29.6973 200.604 29.6477 200.825 29.5962 201.05L29.5332 201.341C29.4816 201.574 29.432 201.81 29.3843 202.055L29.3327 202.316C29.2926 202.528 29.2525 202.742 29.2143 202.96C29.1972 203.051 29.1819 203.139 29.1647 203.233C29.1189 203.502 29.075 203.779 29.0311 204.061C29.0158 204.164 28.9986 204.269 28.9833 204.374C28.9413 204.662 28.8993 204.947 28.8593 205.258C28.8459 205.355 28.8344 205.449 28.823 205.55C28.7867 205.829 28.7543 206.111 28.7218 206.4C28.7218 206.478 28.7027 206.554 28.6951 206.633C28.6588 206.963 28.6263 207.303 28.5939 207.646C28.5939 207.749 28.5767 207.851 28.5672 207.956C28.5366 208.308 28.508 208.668 28.4813 209.034C28.4813 209.135 28.4679 209.239 28.4603 209.34C28.4354 209.722 28.4106 210.121 28.3896 210.523C28.3896 210.579 28.3896 210.636 28.3896 210.689C28.3718 211.071 28.3559 211.461 28.3419 211.858C28.3419 211.949 28.3419 212.049 28.3323 212.131C28.3209 212.555 28.3094 212.988 28.3037 213.429V213.744C28.3037 214.196 28.3037 214.655 28.3037 215.126C28.3037 215.203 28.3037 215.283 28.3037 215.359C28.3037 215.817 28.3088 216.284 28.319 216.758C28.319 216.82 28.319 216.881 28.319 216.949C28.319 217.453 28.3438 217.969 28.361 218.492L28.3724 218.809C28.3915 219.331 28.4151 219.862 28.4431 220.403C28.4431 220.5 28.4431 220.594 28.4583 220.695C28.487 221.268 28.5213 221.84 28.5595 222.428C28.6626 223.977 28.7829 226.138 29.4893 228.121C30.4629 230.849 32.5438 233.242 37.2421 233.242C45.3175 233.242 49.1662 233.242 49.1987 229.841C47.3259 230.605 43.9773 230.62 39.0442 230.62C30.9134 230.618 30.5851 223.484 30.3407 219.805Z" fill="#C3BFBE"/>
<path d="M76.1152 170.253C76.1152 170.253 95.649 157.229 91.6419 161.739C87.6347 166.248 86.1322 170.755 86.1322 170.755C86.1322 170.755 106.178 160.736 99.6562 166.246C93.1348 171.756 85.632 170.755 94.1466 174.762C102.661 178.77 114.685 181.272 112.18 181.272L83.6218 177.767" fill="#326D88"/>
<path d="M134.111 137.247C134.111 137.247 139.153 116.703 143.517 114.781C147.882 112.858 156.896 113.253 155.251 115.323C153.605 117.392 146.251 116.516 145.459 117.322C144.667 118.127 143.676 122.094 143.676 122.094C143.676 122.094 150.894 121.012 152.7 122.858C154.506 124.704 152.578 126.508 152.578 126.508L144.926 126.382C144.926 126.382 152.862 126.764 153.607 128.005C154.351 129.246 153.246 131.021 153.246 131.021L145.535 130.344C145.535 130.344 153.695 130.754 154.065 133.085C154.435 135.416 153.133 140.034 151.116 139.767C149.098 139.5 150.986 135.641 149.924 135.044C148.863 134.446 145.606 134.92 145.606 134.92C145.606 134.92 141.759 141.464 139.98 142.827C138.201 144.19 135.988 143.661 135.988 143.661" fill="#DCA86E"/>
<path d="M152.578 126.508L144.927 126.382C144.927 126.382 150.805 126.665 152.916 127.528C152.854 127.153 152.769 126.783 152.664 126.418C152.613 126.478 152.578 126.508 152.578 126.508Z" fill="#CB955F"/>
<path d="M147.466 130.508C149.318 130.722 152.017 131.176 153.319 132.083C153.319 131.808 153.296 131.424 153.273 130.974L153.247 131.017L147.466 130.508Z" fill="#CB955F"/>
<path d="M117.126 94.4317C117.289 100.335 112.544 103.924 106.155 99.0135C99.765 94.1033 102.337 79.0578 102.337 79.0578L103.934 76.9693C102.661 76.9253 100.867 77.0666 100.147 78.0937C98.9785 79.7642 95.7063 103.54 109.162 104.976C120.116 106.144 118.039 95.56 117.346 92.8891C117.193 93.3889 117.119 93.9093 117.126 94.4317Z" fill="#D6D9DC"/>
<path d="M100.705 130.267C106.912 122.328 109.003 113.592 105.375 110.756C101.746 107.919 93.7733 112.055 87.5662 119.994C81.359 127.934 79.2684 136.669 82.8965 139.506C86.5247 142.342 94.4977 138.206 100.705 130.267Z" fill="white"/>
<path d="M100.077 129.765C99.5747 130.407 99.0535 131.031 98.519 131.638L98.8282 131.287C97.7946 132.458 96.687 133.562 95.5122 134.591L95.8348 134.311C94.7789 135.236 93.6566 136.083 92.4767 136.844L92.7955 136.642C91.7758 137.301 90.6954 137.862 89.5692 138.316L89.8651 138.199C88.9301 138.581 87.9451 138.825 86.9404 138.925L87.2 138.904C86.3711 138.991 85.5331 138.888 84.7506 138.6L84.9568 138.682C84.2523 138.404 83.6431 137.928 83.2024 137.312L83.3322 137.493C82.862 136.804 82.5563 136.016 82.4387 135.191L82.4807 135.448C82.3361 134.449 82.3361 133.434 82.4807 132.434L82.4387 132.751C82.6075 131.548 82.8907 130.364 83.2844 129.215L83.1642 129.572C83.6187 128.244 84.17 126.95 84.8136 125.703L84.6227 126.084C85.339 124.698 86.1424 123.359 87.0282 122.075L86.7647 122.457C87.6857 121.119 88.6866 119.839 89.762 118.622L89.4527 118.971C90.4846 117.796 91.5903 116.688 92.7631 115.653L92.4423 115.934C93.4972 115.008 94.619 114.161 95.7985 113.4L95.4816 113.603C96.5009 112.942 97.5813 112.382 98.708 111.928L98.4102 112.045C99.3452 111.664 100.33 111.42 101.335 111.319L101.075 111.34C101.906 111.256 102.744 111.363 103.527 111.654L103.318 111.571C104.023 111.851 104.632 112.326 105.073 112.942L104.943 112.751C105.414 113.441 105.721 114.229 105.838 115.056L105.796 114.798C105.939 115.797 105.939 116.811 105.796 117.81L105.837 117.493C105.669 118.699 105.386 119.885 104.993 121.037L105.113 120.68C104.659 122.008 104.109 123.302 103.465 124.549L103.656 124.168C102.941 125.554 102.138 126.893 101.251 128.177L101.516 127.795C101.056 128.461 100.575 129.118 100.075 129.759C99.811 130.092 99.6162 130.473 99.5022 130.882C99.4258 131.206 99.464 131.527 99.632 131.636C100 131.869 100.739 131.521 101.35 130.746C102.606 129.139 103.743 127.444 104.752 125.672C105.667 124.085 106.447 122.425 107.087 120.708C107.391 119.889 107.653 119.055 107.872 118.209C108.063 117.447 108.206 116.673 108.299 115.892C108.474 114.658 108.426 113.403 108.158 112.186C107.946 111.193 107.44 110.286 106.707 109.582C105.965 108.918 105.027 108.513 104.034 108.427C102.858 108.329 101.673 108.47 100.552 108.841C99.1407 109.292 97.7903 109.915 96.5316 110.697C95.789 111.148 95.0406 111.642 94.2884 112.201C93.5363 112.761 92.7612 113.404 92.009 114.07C90.517 115.402 89.1259 116.843 87.8472 118.381C86.5138 119.972 85.2971 121.657 84.2065 123.423C83.2135 125.024 82.3479 126.701 81.6178 128.438C80.9791 129.94 80.4936 131.503 80.1688 133.102C79.892 134.557 79.7985 135.91 79.9474 137.062C80.0135 137.647 80.146 138.224 80.3425 138.78C80.5351 139.281 80.8029 139.751 81.1367 140.172C81.7492 140.944 82.6085 141.483 83.5708 141.699C84.5254 141.937 85.6708 141.901 86.8984 141.626C88.2677 141.293 89.5855 140.775 90.8158 140.088C92.3043 139.271 93.7135 138.318 95.0253 137.241C96.5301 136.014 97.9387 134.674 99.2387 133.232C99.9622 132.43 100.665 131.609 101.339 130.75C101.603 130.418 101.797 130.036 101.911 129.628C101.988 129.303 101.95 128.982 101.782 128.864C101.419 128.643 100.682 128.99 100.077 129.765Z" fill="#B45642"/>
<path d="M98.1536 120.832C98.312 120.842 98.4635 120.901 98.587 121C98.5901 121.025 98.599 121.048 98.613 121.068C98.627 121.088 98.6455 121.104 98.6672 121.115H98.6767C98.6951 121.152 98.708 121.191 98.7149 121.231C98.827 121.307 98.9466 121.371 99.0719 121.422C99.0992 121.322 99.1177 121.219 99.1273 121.115C99.1313 121.042 99.1557 120.971 99.1979 120.911C98.8824 120.739 98.5528 120.595 98.2128 120.479C97.8033 120.327 97.4057 120.143 97.0234 119.931C97.0903 119.979 97.1533 120.029 97.2143 120.08C97.5752 120.374 97.8787 120.628 98.1536 120.832Z" fill="#D9DCD2"/>
<path d="M99.6697 120.096V120.189C99.686 120.167 99.7039 120.146 99.7232 120.126L99.7327 120.117L99.5762 120.015L99.6697 120.096Z" fill="#D9DCD2"/>
<path d="M99.4062 121.111C99.5036 120.976 99.5819 120.859 99.6697 120.748C99.7711 120.603 99.8941 120.475 100.034 120.367L100.059 120.338V120.319L99.9522 120.248C99.8315 120.341 99.7281 120.454 99.6468 120.582C99.6447 120.592 99.6393 120.6 99.6315 120.605C99.529 120.76 99.4529 120.931 99.4062 121.111Z" fill="#D9DCD2"/>
<path d="M98.4 120.283C99.0452 120.516 99.2533 120.664 99.3049 120.775L99.3755 120.703L99.4347 120.645C99.3068 120.577 98.9746 120.395 98.5145 120.136C97.917 119.8 95.7559 118.975 95.6986 118.958C95.6413 118.941 96.4928 119.057 97.7871 119.582C97.9914 119.664 98.2052 119.758 98.4305 119.861C99.1942 120.216 99.492 120.405 99.5932 120.506L99.6352 120.47L99.5512 120.34C98.9721 119.909 98.3705 119.508 97.749 119.141C97.6382 119.141 97.497 119.141 97.3538 119.128C97.0464 119.128 95.0514 118.377 95.0514 118.377L96.3286 118.774C96.6816 118.888 97.0483 118.952 97.4187 118.965C96.5692 118.519 95.2423 117.873 95.2423 117.873C95.2423 117.873 95.6375 118.009 97.0388 118.57C97.1661 118.622 97.2933 118.676 97.4206 118.731C97.019 118.494 96.5974 118.292 96.1606 118.129C95.25 117.858 94.9674 117.556 94.7498 118.101C94.5322 118.645 95.7692 119.112 96.7696 119.76C96.9758 119.807 97.4702 119.949 98.4 120.283Z" fill="#D9DCD2"/>
<path d="M95.0326 122.547L95.0059 122.577C94.9923 122.594 94.9776 122.609 94.962 122.623C94.961 122.628 94.961 122.632 94.962 122.637V122.654V122.688C94.9609 122.693 94.9609 122.698 94.962 122.703V122.755C94.962 122.78 94.962 122.805 94.962 122.826C94.9601 122.85 94.9562 122.874 94.9506 122.898C94.9511 122.906 94.9511 122.915 94.9506 122.923C94.9433 122.936 94.9376 122.949 94.9334 122.963C94.8799 123.102 94.9582 123.087 95.0556 123.049C95.1159 123.016 95.18 122.99 95.2465 122.973C95.2984 122.966 95.3485 122.948 95.3937 122.922C95.439 122.895 95.4785 122.86 95.5099 122.818C95.5563 122.765 95.5972 122.707 95.6321 122.646C95.6263 122.624 95.6192 122.602 95.6111 122.581C95.6111 122.57 95.6016 122.56 95.5977 122.549C95.5709 122.489 95.5623 122.423 95.5729 122.358C95.5939 122.247 95.5576 122.226 95.5061 122.23H95.4736H95.4565L95.4164 122.239H95.3896C95.3709 122.243 95.3529 122.249 95.3362 122.259L95.3056 122.278C95.2562 122.318 95.2119 122.364 95.1739 122.415C95.1739 122.427 95.1567 122.436 95.1491 122.446L95.1052 122.503L95.0326 122.547Z" fill="#D9DCD2"/>
<path d="M96.1076 122.268C96.1005 122.283 96.0947 122.298 96.0904 122.314V122.35C96.0904 122.36 96.0904 122.369 96.0904 122.379C96.0904 122.388 96.0904 122.392 96.0904 122.4C96.0904 122.4 96.0904 122.4 96.0904 122.413C96.0696 122.476 96.053 122.539 96.0407 122.604C96.0372 122.629 96.0372 122.655 96.0407 122.68V122.701C96.0751 122.701 96.0942 122.719 96.119 122.713C96.2412 122.69 96.3615 122.667 96.4875 122.635C96.5149 122.625 96.5402 122.61 96.5619 122.591L96.6135 122.539L96.6631 122.47C96.6801 122.442 96.6936 122.412 96.7032 122.381C96.705 122.369 96.705 122.356 96.7032 122.344C96.7032 122.327 96.7032 122.31 96.7032 122.295C96.7032 122.28 96.6898 122.228 96.6822 122.196C96.6748 122.159 96.6639 122.123 96.6497 122.089C96.6426 122.072 96.6343 122.055 96.6249 122.039C96.6157 122.022 96.6048 122.006 96.5925 121.991L96.5772 121.978C96.5428 121.955 96.4932 121.978 96.434 122.001L96.4016 122.022C96.367 122.045 96.3338 122.069 96.3023 122.096L96.2145 122.171C96.1734 122.197 96.1372 122.23 96.1076 122.268Z" fill="#D9DCD2"/>
<path d="M94.3009 123.137C94.3568 123.091 94.3991 123.031 94.4231 122.963C94.4287 122.95 94.4325 122.937 94.4346 122.923C94.4414 122.894 94.4465 122.865 94.4499 122.835V122.801V122.776C94.4689 122.7 94.4499 122.659 94.4079 122.663H94.3888C94.3549 122.675 94.3232 122.692 94.2952 122.715L94.1043 122.847L94.0089 122.911C93.9352 122.958 93.8762 123.024 93.8389 123.102C93.8154 123.137 93.801 123.178 93.797 123.22C93.793 123.262 93.7996 123.304 93.816 123.343C93.879 123.383 94.1692 123.255 94.3009 123.137Z" fill="#D9DCD2"/>
<path d="M97.2924 121.018L97.0251 121.117H97.0137C97.0137 121.23 97.0137 121.308 97.0137 121.445L97.3745 120.985L97.2924 121.018Z" fill="white"/>
<path d="M94.7523 121.839L94.7714 121.881V121.89L94.7905 121.932L94.8229 122.003L94.9337 121.861L95.1341 121.606L95.0291 121.653L94.9642 121.682L94.8993 121.713L94.8478 121.737L94.7752 121.77L94.7256 121.793L94.7523 121.839Z" fill="white"/>
<path d="M93.692 122.238C93.692 122.249 93.6787 122.26 93.6729 122.274V122.293C93.6585 122.325 93.6457 122.358 93.6348 122.392C93.6348 122.411 93.6901 122.421 93.7169 122.392C93.8085 122.304 93.8963 122.201 93.9841 122.104V122.066L93.9173 122.096C93.8942 122.104 93.8719 122.113 93.8505 122.125C93.803 122.145 93.7576 122.169 93.7149 122.197H93.7035L93.692 122.238Z" fill="white"/>
<path d="M95.8799 121.447C95.9032 121.514 95.9148 121.585 95.9142 121.655C95.9148 121.688 95.9206 121.72 95.9314 121.751L96.2044 121.403L96.193 121.367C96.0861 121.451 96.0059 121.35 95.8799 121.447Z" fill="white"/>
<path d="M98.2107 125.655C98.1744 125.624 98.0923 125.668 98.0293 125.748C97.9663 125.829 97.9453 125.918 97.9816 125.939C98.0179 125.96 98.1 125.926 98.163 125.846C98.226 125.766 98.247 125.683 98.2107 125.655Z" fill="#D9DCD2"/>
<path d="M93.349 123.373C93.4138 123.301 93.4486 123.207 93.4464 123.11C93.4254 123.091 93.2727 122.919 93.1314 122.994C93.0583 123.049 93.0048 123.127 92.9787 123.215C92.9526 123.303 92.9553 123.398 92.9863 123.484C93.0646 123.597 93.2345 123.519 93.349 123.373Z" fill="#D9DCD2"/>
<path d="M99.4479 129.983C99.276 129.792 99.1806 129.362 99.066 129.028C98.9859 128.807 99.1023 127.257 99.2035 126.216L99.2684 126.459L99.2302 126.168L99.5471 126.222L99.6292 126.531L99.5891 126.231C99.696 126.25 99.803 126.271 99.908 126.294L99.99 126.604L99.9519 126.302L100.269 126.367L100.351 126.676L100.313 126.375C100.418 126.396 100.521 126.413 100.628 126.43L100.714 126.749L100.672 126.438C100.847 126.464 101.027 126.485 101.212 126.495C101.032 126.451 100.849 126.409 100.666 126.369L100.987 126.229C100.893 126.25 100.8 126.277 100.71 126.31C100.649 126.333 100.607 126.352 100.607 126.352L100.317 126.287L100.626 126.153C100.532 126.174 100.439 126.2 100.349 126.233L100.25 126.273L99.9691 126.208L100.265 126.081C100.17 126.1 100.077 126.127 99.9862 126.161L99.906 126.193C99.8144 126.172 99.7151 126.149 99.633 126.124L99.9041 126.008C99.8093 126.028 99.7162 126.054 99.6254 126.088L99.572 126.109L99.3047 126.039L99.5433 125.935C99.4485 125.955 99.3553 125.982 99.2646 126.016H99.2455H99.2226C99.2646 125.603 99.3009 125.305 99.3161 125.267C99.3677 125.13 103.457 119.832 103.457 119.832C103.457 119.832 103.568 119.622 103.512 119.521C103.457 119.42 101.697 120.76 100.933 121.336C100.964 120.905 100.899 120.538 100.723 120.382C100.664 120.332 100.6 120.288 100.532 120.25C100.914 119.687 101.985 118.104 102.207 117.793C102.476 117.411 102.865 116.951 102.724 116.959C102.583 116.967 102.325 117.297 102.228 117.455C102.151 117.583 100.842 119.414 100.301 120.168H100.257C100.12 120.071 99.906 119.926 99.6426 119.756L101.473 116.4C101.473 116.4 101.676 115.968 101.563 115.939C101.496 115.922 99.4631 117.451 97.8366 118.66C97.136 118.267 96.4716 117.938 96.107 117.868C95.1028 117.677 94.8317 117.257 94.4976 117.967C94.1635 118.677 95.3223 119.147 96.3227 119.782C96.1764 119.896 96.024 120.002 95.8664 120.099C95.7423 120.12 93.6824 118.803 93.6824 118.803C93.6824 118.803 92.9837 116.43 92.9722 116.067C92.9608 115.705 93.0868 114.03 93.0868 114.03C93.0868 114.03 92.8252 116.188 92.8329 116.487C92.8405 116.787 93.4743 119.172 93.6519 119.254C93.8294 119.336 95.624 120.617 95.9237 120.437C95.9867 120.401 96.2349 120.222 96.5881 119.96C96.6938 120.033 96.7957 120.111 96.8935 120.195L97.01 120.292L94.6503 121.732C94.4365 121.816 94.2227 121.9 94.007 121.993C93.7282 122.11 93.4342 122.259 93.1574 122.398L93.0791 122.438C93.0362 122.43 92.994 122.417 92.9531 122.402C92.867 122.369 92.7791 122.341 92.6897 122.318C92.6683 122.289 92.637 122.269 92.6018 122.261C92.5667 122.254 92.53 122.26 92.4988 122.278L92.4873 122.289C92.4398 122.321 92.3968 122.359 92.3594 122.402C92.1399 122.638 92.012 122.957 92.0807 123.099L92.117 123.028C92.1259 123.054 92.1381 123.079 92.1532 123.102C91.3381 123.421 90.6011 123.666 90.2155 123.698C89.1235 123.788 87.3519 123.698 86.4661 123.303C86.0996 123.131 85.749 122.927 85.418 122.694L85.1641 122.852C85.6158 123.24 86.1383 123.536 86.7028 123.725C87.1209 123.876 90.0666 124.231 90.8131 123.929C91.0631 123.828 91.655 123.582 92.3403 123.289C92.4835 123.385 92.6572 123.456 92.7775 123.549L92.7947 123.561C92.8006 123.571 92.8076 123.582 92.8157 123.591C92.8405 123.708 93.0066 124.114 94.1979 123.912C95.0112 123.776 95.7952 123.502 96.5155 123.1C95.5953 124.496 94.5969 126.033 94.3334 126.506C93.6137 127.31 90.6737 130.668 90.6737 130.668C90.6737 130.668 89.1999 132.346 88.5832 132.928C87.9666 133.511 86.8231 134.561 87.0102 134.528C87.1972 134.496 90.4981 131.061 90.9047 130.613C91.3113 130.164 94.3525 126.819 94.3525 126.819V126.796C94.3773 126.817 94.4136 126.796 94.4919 126.678L96.9737 122.764L97.0061 122.73C96.8755 122.941 96.7619 123.162 96.6663 123.391C96.6218 123.473 96.589 123.561 96.569 123.652C96.5518 123.708 96.5346 123.763 96.5212 123.82C96.5074 123.844 96.4983 123.871 96.4945 123.898C96.4943 123.903 96.4943 123.907 96.4945 123.912C96.4201 124.257 96.4258 124.607 96.632 124.853C96.6701 124.901 96.7184 124.939 96.7732 124.966C96.781 124.975 96.7911 124.982 96.8025 124.986C96.8139 124.99 96.8263 124.991 96.8381 124.989L96.8878 125C96.9202 125.031 96.9775 125.042 97.0787 125L97.1264 124.977C97.5082 124.835 97.8445 124.592 98.1001 124.275C98.1325 124.275 98.1497 124.317 98.1478 124.366C98.1595 124.382 98.1674 124.4 98.1707 124.42C97.3345 125.397 95.4178 127.638 95.2402 127.867C95.0111 128.161 93.3483 132.348 93.1861 132.694C93.0238 133.039 91.7848 136.376 91.7848 136.376H91.9432L93.3636 132.531L95.309 128.152L96.9107 126.243C96.8744 126.733 96.8439 127.629 96.5289 128.412C96.1203 129.448 94.6198 132.403 94.6198 132.403C94.7212 132.329 94.8101 132.239 94.8832 132.136C94.952 132.014 96.7923 128.383 96.926 128.011C97.0596 127.638 97.0653 126.115 97.0653 126.115L97.3078 126.037L97.2906 126.082C97.3001 126.184 97.3078 126.289 97.325 126.384C97.3444 126.444 97.3748 126.5 97.4147 126.548C97.4242 126.565 97.4491 126.577 97.4433 126.602C97.4223 126.68 97.3975 126.76 97.3708 126.84C97.3708 126.856 97.3708 126.88 97.3479 126.901C97.3001 127.035 97.2429 127.174 97.1741 127.32C97.136 127.468 97.0844 127.625 97.0558 127.77C97.0463 127.815 97.0412 127.861 97.0405 127.908C97.1241 127.84 97.1804 127.744 97.199 127.638C97.241 127.522 97.2581 127.413 97.3001 127.297C97.3421 127.18 97.3975 127.066 97.4471 126.949L97.5101 126.926C97.4853 127.075 97.4739 127.218 97.4338 127.375C97.3307 127.77 97.325 127.774 97.388 127.804C97.4567 127.524 97.5254 127.27 97.5789 127.024C97.5803 126.981 97.5915 126.938 97.6117 126.9C97.6318 126.862 97.6605 126.829 97.6953 126.804C97.8041 126.714 97.913 126.613 98.0428 126.502C98.0428 126.613 98.0428 126.726 98.0294 126.838L97.8156 127.299L98.0256 126.898C98.0256 127.06 98.0027 127.224 97.9874 127.39L97.808 127.772L97.9836 127.438C97.9836 127.533 97.9664 127.629 97.9588 127.726L97.7106 128.261L97.9531 127.799C97.9397 127.938 97.9301 128.077 97.9206 128.215L97.6743 128.746L97.9168 128.282C97.9168 128.44 97.9034 128.595 97.9034 128.746L97.6686 129.253L97.9053 128.803C97.9056 129.01 97.9241 129.217 97.9607 129.421C97.9464 129.184 97.9464 128.945 97.9607 128.707L98.1096 128.868C98.0848 128.8 98.0514 128.736 98.0103 128.677L97.9645 128.622C97.9645 128.494 97.9836 128.364 97.997 128.24L98.1153 128.368C98.0905 128.3 98.0572 128.236 98.0161 128.177L98.0046 128.161C98.018 128.034 98.0332 127.906 98.0504 127.78L98.1516 127.888C98.1274 127.822 98.0967 127.758 98.06 127.698C98.0771 127.549 98.0981 127.4 98.1172 127.251L98.249 127.392C98.2237 127.325 98.1904 127.261 98.1497 127.201L98.1268 127.173C98.142 127.056 98.1554 126.94 98.1688 126.821L98.2566 126.915C98.2357 126.857 98.2095 126.802 98.1783 126.749C98.1917 126.617 98.205 126.483 98.2165 126.35C98.375 126.277 98.501 126.033 98.5983 126.031C98.7226 126.037 98.8448 126.066 98.9591 126.115C98.8593 127.018 98.8115 127.925 98.816 128.833C98.8484 129.273 99.0909 129.994 99.3085 130.17C99.5261 130.345 100.385 130.305 100.465 130.307C100.546 130.309 99.6197 130.177 99.4479 129.983ZM93.7072 122.213H93.7187C93.7614 122.184 93.8068 122.16 93.8542 122.14C93.8756 122.129 93.898 122.119 93.9211 122.112L93.9879 122.081V122.119L93.9325 122.182L93.65 122.354C93.65 122.337 93.6633 122.32 93.671 122.302V122.283C93.671 122.27 93.6843 122.259 93.6901 122.247L93.7072 122.213ZM92.9856 123.484C92.9546 123.398 92.9519 123.303 92.978 123.215C93.0041 123.127 93.0576 123.049 93.1307 122.994C93.272 122.921 93.4247 123.091 93.4457 123.11C93.4479 123.207 93.4131 123.301 93.3483 123.373C93.2338 123.519 93.0639 123.597 92.9856 123.484ZM99.9423 120.258L100.049 120.328V120.348L100.024 120.376C99.8841 120.484 99.7612 120.613 99.6598 120.758C99.572 120.869 99.4937 120.985 99.3963 121.121C99.4416 120.945 99.5151 120.777 99.614 120.624C99.6217 120.619 99.6272 120.611 99.6292 120.601C99.7119 120.469 99.818 120.352 99.9423 120.258ZM99.7247 120.117L99.7151 120.126C99.6958 120.146 99.678 120.167 99.6617 120.189V120.096L99.5605 120.015L99.7247 120.117ZM100.933 116.81C101.059 116.81 99.887 118.803 99.4059 119.611L99.1596 119.454L99.1768 119.414C99.3429 119.122 99.488 118.841 99.4345 118.826C99.4148 118.829 99.3959 118.836 99.3791 118.847C99.3906 118.794 99.3887 118.767 99.3696 118.774C99.2507 118.822 99.1521 118.91 99.0909 119.023L98.772 119.214C98.5582 119.084 98.3368 118.952 98.1153 118.822C99.4269 117.854 100.847 116.806 100.933 116.81ZM96.7331 121.084L97.3937 120.619C97.512 120.714 97.6247 120.81 97.7316 120.888C97.7173 120.888 97.7033 120.884 97.6904 120.878C97.6776 120.872 97.6662 120.863 97.6571 120.852C97.6493 120.844 97.6393 120.839 97.6285 120.838L97.5331 120.861C97.2734 120.926 97.0023 121.012 96.7331 121.084ZM97.3631 120.991L97.0023 121.451C97.0023 121.317 97.0023 121.235 97.0023 121.123H97.0138L97.2811 121.023L97.3631 120.991ZM97.5903 120.388L97.7392 120.288C97.8671 120.348 97.9931 120.401 98.1001 120.439L97.9531 120.68C97.8423 120.59 97.7221 120.493 97.5941 120.388H97.5903ZM98.457 119.876L98.4265 119.861L98.3941 119.845C98.5334 119.752 98.6002 119.708 98.5601 119.737C98.5227 119.78 98.4895 119.827 98.4609 119.876H98.457ZM98.3444 120.05L98.2337 120.225L97.9683 120.132L98.1974 119.979L98.3444 120.05ZM94.7496 118.097C94.9672 117.543 95.2498 117.854 96.1604 118.125C96.5972 118.289 97.0188 118.49 97.4204 118.727C97.2931 118.672 97.1659 118.619 97.0386 118.566C95.6373 118.005 95.2421 117.87 95.2421 117.87C95.2421 117.87 96.5785 118.515 97.4185 118.962C97.0481 118.948 96.6814 118.884 96.3284 118.771L95.0512 118.374C95.0512 118.374 97.05 119.128 97.3574 119.128C97.5006 119.128 97.6419 119.128 97.7526 119.141C97.932 119.242 98.1344 119.362 98.3253 119.49L98.0141 119.681L97.7851 119.586C96.4907 119.061 95.6469 118.944 95.6965 118.962C95.7461 118.979 96.9451 119.435 97.806 119.807L97.5178 119.983C97.136 119.859 96.8954 119.792 96.7675 119.76C95.7786 119.109 94.5205 118.679 94.7496 118.097ZM97.0233 119.929L97.3364 120.092L97.2753 120.128L97.2161 120.078C97.1531 120.027 97.0901 119.977 97.0233 119.929ZM94.301 123.137C94.1692 123.257 93.8791 123.385 93.8351 123.341C93.8187 123.302 93.8122 123.26 93.8162 123.218C93.8202 123.176 93.8346 123.136 93.8581 123.1C93.8953 123.022 93.9543 122.956 94.028 122.91L94.1234 122.845L94.3143 122.713C94.3423 122.691 94.374 122.673 94.4079 122.661H94.427C94.4728 122.661 94.4881 122.698 94.469 122.774V122.799V122.833C94.4656 122.863 94.4605 122.892 94.4537 122.921C94.4517 122.935 94.4478 122.948 94.4422 122.961C94.4133 123.032 94.3642 123.093 94.301 123.137ZM95.4655 122.816C95.434 122.858 95.3946 122.893 95.3493 122.92C95.3041 122.946 95.254 122.964 95.2021 122.971C95.1356 122.988 95.0715 123.014 95.0111 123.047C94.9138 123.085 94.8355 123.1 94.889 122.961C94.8931 122.947 94.8989 122.934 94.9061 122.921C94.9067 122.913 94.9067 122.904 94.9061 122.896C94.9118 122.872 94.9156 122.848 94.9176 122.824C94.9176 122.803 94.9176 122.778 94.9176 122.753V122.69V122.656V122.638C94.9166 122.634 94.9166 122.63 94.9176 122.625C94.9332 122.611 94.9478 122.595 94.9615 122.579L94.9882 122.549L95.0111 122.52L95.0551 122.463C95.0551 122.453 95.0722 122.444 95.0799 122.432C95.1179 122.381 95.1621 122.335 95.2116 122.295L95.2421 122.276C95.2588 122.267 95.2769 122.26 95.2956 122.257H95.3223L95.3624 122.247H95.3796H95.4121C95.4636 122.247 95.4999 122.264 95.4789 122.375C95.4682 122.44 95.4769 122.506 95.5037 122.566C95.5037 122.577 95.5132 122.587 95.5171 122.598C95.5252 122.62 95.5322 122.641 95.5381 122.663C95.5179 122.715 95.4936 122.766 95.4655 122.814V122.816ZM96.548 122.589C96.5263 122.608 96.501 122.623 96.4735 122.633C96.3475 122.665 96.2272 122.688 96.1051 122.711C96.0802 122.711 96.0611 122.711 96.0268 122.7V122.679C96.0232 122.653 96.0232 122.628 96.0268 122.602C96.0391 122.538 96.0557 122.474 96.0764 122.411C96.0764 122.411 96.0764 122.411 96.0764 122.398C96.0764 122.398 96.0764 122.385 96.0764 122.377C96.0764 122.369 96.0764 122.358 96.0764 122.348V122.312C96.0808 122.296 96.0865 122.281 96.0936 122.266C96.1164 122.23 96.1447 122.197 96.1776 122.169L96.2654 122.094C96.297 122.068 96.3301 122.043 96.3647 122.02L96.3971 121.999C96.4563 121.966 96.506 121.953 96.5403 121.976L96.5556 121.989C96.5679 122.004 96.5788 122.02 96.5881 122.037C96.5975 122.053 96.6058 122.07 96.6129 122.087C96.6271 122.121 96.6379 122.157 96.6453 122.194C96.6453 122.226 96.6606 122.259 96.6663 122.293C96.6721 122.327 96.6663 122.325 96.6663 122.343C96.6682 122.355 96.6682 122.367 96.6663 122.379C96.6567 122.41 96.6433 122.44 96.6262 122.469L96.5766 122.537L96.548 122.589ZM98.8179 119.817C99.1405 120.038 99.4173 120.239 99.5548 120.34L99.6388 120.47L99.5968 120.506C99.3265 120.296 99.0292 120.123 98.7129 119.992L98.8179 119.817ZM98.5926 120.181C99.0126 120.418 99.3142 120.582 99.4345 120.647L99.3753 120.705L99.3047 120.777C99.257 120.68 99.068 120.535 98.5029 120.323L98.5926 120.181ZM98.6766 121.121H98.6671C98.6454 121.11 98.6268 121.093 98.6129 121.073C98.5989 121.053 98.59 121.03 98.5869 121.006C98.4714 120.911 98.3294 120.854 98.1802 120.842L98.3711 120.537C98.6547 120.646 98.9308 120.773 99.1978 120.918C99.1556 120.979 99.1311 121.049 99.1271 121.123C99.1176 121.227 99.0991 121.329 99.0718 121.43C98.9465 121.379 98.8269 121.315 98.7148 121.239C98.7082 121.197 98.6953 121.157 98.6766 121.119V121.121ZM98.8904 121.884C98.8451 121.868 98.8036 121.843 98.7682 121.81C98.7549 121.793 98.7797 121.732 98.7873 121.69C98.8274 121.674 98.8923 121.63 98.9019 121.648C98.9245 121.705 98.9393 121.766 98.9458 121.827L98.8904 121.884ZM97.3918 125.683L97.9187 125.053C97.8576 125.153 97.7946 125.244 97.7278 125.347C97.661 125.451 97.5865 125.556 97.5197 125.661L97.3918 125.683ZM97.9817 125.958C97.9454 125.93 97.9664 125.84 98.0294 125.767C98.0924 125.695 98.1745 125.643 98.2108 125.674C98.247 125.704 98.226 125.79 98.163 125.865C98.1 125.939 98.018 125.976 97.9817 125.947V125.958ZM98.7453 125.913C98.6785 125.895 98.6861 125.84 98.7644 125.722C98.8377 125.616 98.9016 125.504 98.9553 125.388C99.0689 125.263 99.1328 125.102 99.1348 124.933C99.1463 124.891 99.1463 124.847 99.1348 124.805C99.0946 124.706 99.0454 124.611 98.9878 124.521C98.9755 124.458 98.9716 124.394 98.9763 124.33C99.0385 124.274 99.1071 124.225 99.1806 124.185C99.4502 124.077 99.6819 123.891 99.8469 123.652C99.9614 123.53 100.108 123.362 100.292 123.133C100.59 122.712 100.786 122.228 100.864 121.718L102.877 120.29C102.877 120.29 99.4059 124.834 99.1481 125.162C99.0381 125.416 98.9735 125.688 98.9572 125.964L98.7453 125.913Z" fill="#37375D"/>
<path d="M97.3615 112.238C97.2374 112.455 93.003 137.396 93.003 137.396L90.5518 138.495L94.5799 113.836" fill="#B45642"/>
<path d="M75.233 90.9991C75.233 90.9991 64.8399 92.9426 64.4428 108.022C64.0457 123.102 74.3834 137.027 74.3834 137.027" fill="#D6D9DC"/>
<path d="M135.605 135.748C135.605 135.748 102.211 139.309 99.7634 140.2C97.316 141.092 94.1965 105.693 88.8549 105.472C83.5133 105.25 73.7158 105.905 73.7158 108.145C73.7158 134.859 88.6315 156.445 97.5374 159.346C106.443 162.248 136.718 143.755 136.718 143.755" fill="#DCA86E"/>
<path d="M93.307 95.3977C93.307 95.3977 92.6388 87.6067 83.9525 86.2704C75.2661 84.934 72.1429 89.6208 72.1429 89.6208C69.9856 91.9022 67.0074 96.8753 68.1471 107.419C69.4682 119.637 77.1542 136.852 77.1542 136.852L100.428 128.568C100.428 128.568 97.1977 105.466 93.307 95.3977Z" fill="white"/>
<path d="M91.5257 96.0659C91.5257 96.0659 90.8575 88.273 82.1711 86.9385C73.4848 85.6041 70.3615 90.289 70.3615 90.289C68.208 92.5703 65.2337 97.5549 66.3791 108.087C67.7002 120.306 75.3862 137.52 75.3862 137.52L98.6427 129.246C98.6427 129.246 95.4164 106.134 91.5257 96.0659Z" fill="#ECECED"/>
</svg>
