<svg width="113" height="112" viewBox="0 0 113 112" fill="none" xmlns="http://www.w3.org/2000/svg">
  <rect x="1" y="0.5" width="111" height="111" rx="11.5" stroke="#EEEEEE"/>
  <path d="M72.5 61.3333V53.3333H64.5V48H72.5V40H77.8333V48H85.8333V53.3333H77.8333V61.3333H72.5ZM48.5 56C45.5667 56 43.0556 54.9555 40.9667 52.8666C38.8778 50.7777 37.8333 48.2666 37.8333 45.3333C37.8333 42.4 38.8778 39.8888 40.9667 37.8C43.0556 35.7111 45.5667 34.6666 48.5 34.6666C51.4333 34.6666 53.9444 35.7111 56.0333 37.8C58.1222 39.8888 59.1667 42.4 59.1667 45.3333C59.1667 48.2666 58.1222 50.7777 56.0333 52.8666C53.9444 54.9555 51.4333 56 48.5 56ZM27.1667 77.3333V69.8666C27.1667 68.3555 27.5556 66.9666 28.3333 65.7C29.1111 64.4333 30.1444 63.4666 31.4333 62.8C34.1889 61.4222 36.9889 60.3888 39.8333 59.7C42.6778 59.0111 45.5667 58.6666 48.5 58.6666C51.4333 58.6666 54.3222 59.0111 57.1667 59.7C60.0111 60.3888 62.8111 61.4222 65.5667 62.8C66.8556 63.4666 67.8889 64.4333 68.6667 65.7C69.4444 66.9666 69.8333 68.3555 69.8333 69.8666V77.3333H27.1667ZM32.5 72H64.5V69.8666C64.5 69.3777 64.3778 68.9333 64.1333 68.5333C63.8889 68.1333 63.5667 67.8222 63.1667 67.6C60.7667 66.4 58.3444 65.5 55.9 64.9C53.4556 64.3 50.9889 64 48.5 64C46.0111 64 43.5444 64.3 41.1 64.9C38.6556 65.5 36.2333 66.4 33.8333 67.6C33.4333 67.8222 33.1111 68.1333 32.8667 68.5333C32.6222 68.9333 32.5 69.3777 32.5 69.8666V72ZM48.5 50.6666C49.9667 50.6666 51.2222 50.1444 52.2667 49.1C53.3111 48.0555 53.8333 46.8 53.8333 45.3333C53.8333 43.8666 53.3111 42.6111 52.2667 41.5666C51.2222 40.5222 49.9667 40 48.5 40C47.0333 40 45.7778 40.5222 44.7333 41.5666C43.6889 42.6111 43.1667 43.8666 43.1667 45.3333C43.1667 46.8 43.6889 48.0555 44.7333 49.1C45.7778 50.1444 47.0333 50.6666 48.5 50.6666Z" fill="#03E502"/>
  </svg>
