<svg width="57" height="57" viewBox="0 0 57 57" fill="none" xmlns="http://www.w3.org/2000/svg">
<g filter="url(#filter0_dd_204_5513)">
<rect x="4.65" y="3.15" width="47.7" height="47.7" rx="11.85" fill="#067507"/>
<rect x="4.65" y="3.15" width="47.7" height="47.7" rx="11.85" stroke="#E7E5E4" stroke-width="0.3"/>
<path fill-rule="evenodd" clip-rule="evenodd" d="M33.2806 13.2879C35.2324 13.8622 37.0444 14.8338 38.6029 16.1417C40.4638 17.6629 41.8203 19.712 42.4937 22.0192C42.7645 22.9778 42.9011 23.9692 42.8998 24.9652C42.8826 27.2098 42.1791 29.3954 40.8838 31.2286C40.2955 32.038 39.6279 32.7866 38.8909 33.4633C36.7736 35.511 34.5023 37.3932 32.0969 39.0932C31.0133 39.9062 29.8472 40.6031 28.6179 41.1724C28.3405 41.2833 28.0502 41.3588 27.7539 41.397C27.7038 41.4034 27.6529 41.3994 27.6044 41.3852C27.556 41.371 27.511 41.3469 27.4723 41.3144C27.4336 41.2819 27.4021 41.2418 27.3796 41.1966C27.3572 41.1513 27.3444 41.1019 27.3421 41.0514C27.2911 40.695 27.3107 40.332 27.3997 39.9831C27.4177 39.8357 27.4406 39.6884 27.4636 39.5409C27.5137 39.2187 27.5638 38.896 27.5638 38.572C27.5854 38.3935 27.57 38.2126 27.5188 38.0403C27.4676 37.868 27.3815 37.7081 27.266 37.5704C27.1504 37.4327 27.0078 37.3202 26.847 37.2399C26.6862 37.1595 26.5107 37.1131 26.3312 37.1033C23.2928 36.7552 20.4326 35.4895 18.1318 33.4748C16.293 31.9106 14.994 29.8066 14.4195 27.4619C14.0685 26.0654 14.0059 24.6119 14.2357 23.1904C14.4655 21.7689 14.9827 20.4091 15.7558 19.1942C16.9515 17.272 18.6269 15.6941 20.6173 14.6154C22.0969 13.774 23.7085 13.1898 25.3837 12.8876C26.174 12.7563 26.9711 12.6698 27.7712 12.6284C28.3811 12.5905 28.9929 12.5905 29.6029 12.6284C30.8506 12.7018 32.0851 12.9232 33.2806 13.2879ZM26.5224 24.4839H23.6459C22.2176 24.4839 21.588 23.2624 21.588 22.0145H25.2758V20.3134L23.3582 18.7158C23.1349 18.5295 23.1047 18.1969 23.291 17.9737C23.4774 17.7498 23.8093 17.7201 24.0332 17.9058L26.1405 19.6622C26.2603 19.7623 26.3295 19.9104 26.3295 20.0671V22.0145H27.208V21.5047C27.208 20.9626 27.5971 20.6244 28.0857 20.4877V18.3109C28.0857 18.0198 28.3214 17.784 28.6125 17.784C28.9036 17.784 29.1393 18.0198 29.1393 18.3109V20.4905C29.6281 20.6295 30.0173 20.9683 30.0173 21.5047V22.0145H30.8955V20.0671C30.8955 19.9104 30.9647 19.7622 31.0852 19.6622L33.1925 17.9059C33.4157 17.7201 33.7476 17.7498 33.934 17.9737C34.1203 18.1969 34.09 18.5295 33.8668 18.7158L31.9492 20.3134V22.0145H35.637C35.637 23.2623 35.0075 24.4839 33.5791 24.4839H30.723L34.0566 26.8172V29.3314L34.6045 29.88C34.8099 30.0855 34.8099 30.4193 34.6045 30.6248C34.399 30.8303 34.0651 30.8303 33.8597 30.6248L33.0029 29.768V27.3657L31.9494 26.6283V30.034L33.1999 31.2846C33.4054 31.4901 33.4054 31.8239 33.1999 32.0294C32.9938 32.2355 32.6606 32.2355 32.4545 32.0294L30.8957 30.4707V26.0374C30.8957 25.9909 30.9017 25.9458 30.913 25.9029L30.0173 25.2759V25.3354V28.2455C30.0173 28.9646 29.3871 29.5501 28.6127 29.5501C27.8382 29.5501 27.208 28.9646 27.208 28.2455V25.3354V25.29L26.3323 25.9029C26.3436 25.9458 26.3496 25.9909 26.3496 26.0374V30.4707L24.7909 32.0294C24.5848 32.2355 24.2515 32.2355 24.0454 32.0294C23.84 31.8239 23.84 31.4901 24.0454 31.2846L25.296 30.034V26.6283L24.2424 27.3657V29.7681L23.3857 30.6248C23.1802 30.8303 22.8464 30.8303 22.6409 30.6248C22.4354 30.4193 22.4354 30.0855 22.6409 29.88L23.1888 29.3314V26.8172L26.5224 24.4839Z" fill="#FCC914"/>
</g>
<defs>
<filter id="filter0_dd_204_5513" x="0" y="0" width="57" height="57" filterUnits="userSpaceOnUse" color-interpolation-filters="sRGB">
<feFlood flood-opacity="0" result="BackgroundImageFix"/>
<feColorMatrix in="SourceAlpha" type="matrix" values="0 0 0 0 0 0 0 0 0 0 0 0 0 0 0 0 0 0 127 0" result="hardAlpha"/>
<feOffset dy="1.5"/>
<feGaussianBlur stdDeviation="1.5"/>
<feColorMatrix type="matrix" values="0 0 0 0 0.0627451 0 0 0 0 0.0941176 0 0 0 0 0.156863 0 0 0 0.06 0"/>
<feBlend mode="normal" in2="BackgroundImageFix" result="effect1_dropShadow_204_5513"/>
<feColorMatrix in="SourceAlpha" type="matrix" values="0 0 0 0 0 0 0 0 0 0 0 0 0 0 0 0 0 0 127 0" result="hardAlpha"/>
<feOffset dy="1.5"/>
<feGaussianBlur stdDeviation="2.25"/>
<feColorMatrix type="matrix" values="0 0 0 0 0.0627451 0 0 0 0 0.0941176 0 0 0 0 0.156863 0 0 0 0.1 0"/>
<feBlend mode="normal" in2="effect1_dropShadow_204_5513" result="effect2_dropShadow_204_5513"/>
<feBlend mode="normal" in="SourceGraphic" in2="effect2_dropShadow_204_5513" result="shape"/>
</filter>
</defs>
</svg>
