<svg width="32" height="32" viewBox="0 0 32 32" fill="none" xmlns="http://www.w3.org/2000/svg">
  <rect x="0.1" y="0.1" width="31.8" height="31.8" rx="7.9" fill="#067507"/>
  <rect x="0.1" y="0.1" width="31.8" height="31.8" rx="7.9" stroke="#D0D5DD" stroke-width="0.2"/>
  <path fill-rule="evenodd" clip-rule="evenodd" d="M19.187 6.85855C20.4883 7.24143 21.6963 7.88917 22.7352 8.7611C23.9758 9.77522 24.8802 11.1413 25.3291 12.6795C25.5096 13.3185 25.6007 13.9794 25.5998 14.6435C25.5884 16.1398 25.1194 17.5969 24.2558 18.8191C23.8637 19.3587 23.4186 19.8577 22.9272 20.3089C21.5157 21.674 20.0015 22.9288 18.3979 24.0621C17.6755 24.6041 16.8981 25.0687 16.0786 25.4482C15.8936 25.5222 15.7001 25.5725 15.5026 25.598C15.4692 25.6023 15.4352 25.5996 15.4029 25.5901C15.3706 25.5806 15.3406 25.5646 15.3148 25.5429C15.289 25.5213 15.268 25.4945 15.2531 25.4644C15.2381 25.4342 15.2296 25.4012 15.228 25.3676C15.194 25.13 15.2071 24.888 15.2664 24.6554C15.2784 24.5571 15.2937 24.4589 15.309 24.3606C15.3424 24.1458 15.3758 23.9307 15.3758 23.7146C15.3902 23.5957 15.38 23.475 15.3458 23.3602C15.3117 23.2453 15.2543 23.1387 15.1773 23.0469C15.1002 22.9551 15.0052 22.8801 14.898 22.8266C14.7908 22.773 14.6737 22.742 14.5541 22.7355C12.5285 22.5035 10.6217 21.6597 9.08783 20.3165C7.86194 19.2737 6.99595 17.8711 6.61295 16.3079C6.37894 15.3769 6.33725 14.4079 6.49042 13.4602C6.6436 12.5126 6.98843 11.606 7.50383 10.7961C8.30099 9.51467 9.4179 8.46269 10.7448 7.74359C11.7312 7.18265 12.8057 6.79316 13.9224 6.59169C14.4493 6.5042 14.9807 6.44652 15.5141 6.41891C15.9207 6.39365 16.3285 6.39365 16.7352 6.41891C17.567 6.46784 18.3901 6.61542 19.187 6.85855ZM14.6816 14.3226H12.7639C11.8117 14.3226 11.392 13.5082 11.392 12.6763H13.8505V11.5423L12.5721 10.4772C12.4233 10.3529 12.4031 10.1312 12.5273 9.98241C12.6516 9.83315 12.8728 9.81339 13.0221 9.93719L14.427 11.1081C14.5069 11.1748 14.553 11.2736 14.553 11.3781V12.6763H15.1387V12.3364C15.1387 11.975 15.3981 11.7496 15.7238 11.6585V10.2072C15.7238 10.0132 15.8809 9.856 16.075 9.856C16.269 9.856 16.4262 10.0132 16.4262 10.2072V11.6603C16.752 11.753 17.0115 11.9789 17.0115 12.3364V12.6763H17.597V11.3781C17.597 11.2736 17.6431 11.1748 17.7234 11.1081L19.1283 9.9372C19.2771 9.81339 19.4984 9.83316 19.6226 9.98242C19.7469 10.1312 19.7267 10.353 19.5778 10.4772L18.2994 11.5423V12.6763H20.7581C20.7581 13.5082 20.3384 14.3226 19.3861 14.3226H17.482L19.7044 15.8781V17.5543L20.0696 17.92C20.2066 18.0569 20.2066 18.2795 20.0696 18.4165C19.9326 18.5535 19.7101 18.5535 19.5731 18.4165L19.0019 17.8453V16.2438L18.2996 15.7522V18.0227L19.1333 18.8564C19.2703 18.9933 19.2703 19.2159 19.1333 19.3529C18.9959 19.4903 18.7737 19.4903 18.6363 19.3529L17.5971 18.3137V15.3582C17.5971 15.3272 17.6012 15.2972 17.6087 15.2686L17.0115 14.8506V14.8903V16.8303C17.0115 17.3097 16.5914 17.7 16.0751 17.7C15.5588 17.7 15.1387 17.3097 15.1387 16.8303V14.8903V14.86L14.5549 15.2686C14.5624 15.2972 14.5664 15.3273 14.5664 15.3582V18.3137L13.5272 19.3529C13.3898 19.4903 13.1677 19.4903 13.0302 19.3529C12.8933 19.2159 12.8933 18.9933 13.0302 18.8564L13.864 18.0227V15.7522L13.1616 16.2438V17.8454L12.5904 18.4165C12.4535 18.5535 12.2309 18.5535 12.0939 18.4165C11.9569 18.2795 11.9569 18.057 12.0939 17.92L12.4592 17.5543V15.8781L14.6816 14.3226Z" fill="#FCC914"/>
  </svg>