<svg width="113" height="112" viewBox="0 0 113 112" fill="none" xmlns="http://www.w3.org/2000/svg">
  <rect x="1" y="0.5" width="111" height="111" rx="11.5" stroke="#EEEEEE" />
  <path
    d="M61.8351 50.6668C61.8351 49.2002 61.3129 47.9446 60.2684 46.9002C59.224 45.8557 57.9684 45.3335 56.5018 45.3335C56.0573 45.3335 55.6351 45.3779 55.2351 45.4668C54.8351 45.5557 54.4573 45.7113 54.1018 45.9335L61.2351 53.0668C61.4573 52.7113 61.6129 52.3335 61.7018 51.9335C61.7906 51.5335 61.8351 51.1113 61.8351 50.6668ZM73.0351 64.8668L69.1684 61.0002C70.2795 59.1335 71.1129 57.3891 71.6684 55.7668C72.224 54.1446 72.5018 52.6224 72.5018 51.2002C72.5018 46.3557 70.9573 42.3891 67.8684 39.3002C64.7795 36.2113 60.9907 34.6668 56.5018 34.6668C54.5462 34.6668 52.7129 34.9668 51.0018 35.5668C49.2906 36.1668 47.7462 37.0446 46.3684 38.2002L42.5684 34.4002C44.4795 32.7557 46.6351 31.5002 49.0351 30.6335C51.4351 29.7668 53.924 29.3335 56.5018 29.3335C62.1462 29.3335 67.1129 31.3113 71.4018 35.2668C75.6907 39.2224 77.8351 44.5335 77.8351 51.2002C77.8351 53.3335 77.4351 55.5224 76.6351 57.7668C75.8351 60.0113 74.6351 62.3779 73.0351 64.8668ZM62.5684 69.6002L40.7684 47.8002C40.6795 48.3335 40.6129 48.8891 40.5684 49.4668C40.524 50.0446 40.5018 50.6224 40.5018 51.2002C40.5018 54.3557 41.8129 57.9668 44.4351 62.0335C47.0573 66.1002 51.0795 70.6224 56.5018 75.6002C57.6573 74.5779 58.7351 73.5668 59.7351 72.5668C60.7351 71.5668 61.6795 70.5779 62.5684 69.6002ZM79.1018 86.1335L66.3018 73.3335C64.8795 74.8446 63.3684 76.3779 61.7684 77.9335C60.1684 79.4891 58.4129 81.0668 56.5018 82.6668C49.3462 76.5779 44.0018 70.9224 40.4684 65.7002C36.9351 60.4779 35.1684 55.6446 35.1684 51.2002C35.1684 49.7779 35.2795 48.4224 35.5018 47.1335C35.724 45.8446 36.0351 44.6224 36.4351 43.4668L26.3018 33.3335L30.1018 29.5335L82.9018 82.3335L79.1018 86.1335Z"
    fill="#5CD759" />
</svg>
  