<svg width="25" height="24" viewBox="0 0 25 24" fill="none" xmlns="http://www.w3.org/2000/svg">
  <g clip-path="url(#clip0_3116_6345)">
    <path
      d="M0.5 18V16.425C0.5 15.7083 0.866667 15.125 1.6 14.675C2.33333 14.225 3.3 14 4.5 14C4.71667 14 4.925 14.0042 5.125 14.0125C5.325 14.0208 5.51667 14.0417 5.7 14.075C5.46667 14.425 5.29167 14.7917 5.175 15.175C5.05833 15.5583 5 15.9583 5 16.375V18H0.5ZM6.5 18V16.375C6.5 15.8417 6.64583 15.3542 6.9375 14.9125C7.22917 14.4708 7.64167 14.0833 8.175 13.75C8.70833 13.4167 9.34583 13.1667 10.0875 13C10.8292 12.8333 11.6333 12.75 12.5 12.75C13.3833 12.75 14.1958 12.8333 14.9375 13C15.6792 13.1667 16.3167 13.4167 16.85 13.75C17.3833 14.0833 17.7917 14.4708 18.075 14.9125C18.3583 15.3542 18.5 15.8417 18.5 16.375V18H6.5ZM20 18V16.375C20 15.9417 19.9458 15.5333 19.8375 15.15C19.7292 14.7667 19.5667 14.4083 19.35 14.075C19.5333 14.0417 19.7208 14.0208 19.9125 14.0125C20.1042 14.0042 20.3 14 20.5 14C21.7 14 22.6667 14.2208 23.4 14.6625C24.1333 15.1042 24.5 15.6917 24.5 16.425V18H20ZM8.625 16H16.4C16.2333 15.6667 15.7708 15.375 15.0125 15.125C14.2542 14.875 13.4167 14.75 12.5 14.75C11.5833 14.75 10.7458 14.875 9.9875 15.125C9.22917 15.375 8.775 15.6667 8.625 16ZM4.5 13C3.95 13 3.47917 12.8042 3.0875 12.4125C2.69583 12.0208 2.5 11.55 2.5 11C2.5 10.4333 2.69583 9.95833 3.0875 9.575C3.47917 9.19167 3.95 9 4.5 9C5.06667 9 5.54167 9.19167 5.925 9.575C6.30833 9.95833 6.5 10.4333 6.5 11C6.5 11.55 6.30833 12.0208 5.925 12.4125C5.54167 12.8042 5.06667 13 4.5 13ZM20.5 13C19.95 13 19.4792 12.8042 19.0875 12.4125C18.6958 12.0208 18.5 11.55 18.5 11C18.5 10.4333 18.6958 9.95833 19.0875 9.575C19.4792 9.19167 19.95 9 20.5 9C21.0667 9 21.5417 9.19167 21.925 9.575C22.3083 9.95833 22.5 10.4333 22.5 11C22.5 11.55 22.3083 12.0208 21.925 12.4125C21.5417 12.8042 21.0667 13 20.5 13ZM12.5 12C11.6667 12 10.9583 11.7083 10.375 11.125C9.79167 10.5417 9.5 9.83333 9.5 9C9.5 8.15 9.79167 7.4375 10.375 6.8625C10.9583 6.2875 11.6667 6 12.5 6C13.35 6 14.0625 6.2875 14.6375 6.8625C15.2125 7.4375 15.5 8.15 15.5 9C15.5 9.83333 15.2125 10.5417 14.6375 11.125C14.0625 11.7083 13.35 12 12.5 12ZM12.5 10C12.7833 10 13.0208 9.90417 13.2125 9.7125C13.4042 9.52083 13.5 9.28333 13.5 9C13.5 8.71667 13.4042 8.47917 13.2125 8.2875C13.0208 8.09583 12.7833 8 12.5 8C12.2167 8 11.9792 8.09583 11.7875 8.2875C11.5958 8.47917 11.5 8.71667 11.5 9C11.5 9.28333 11.5958 9.52083 11.7875 9.7125C11.9792 9.90417 12.2167 10 12.5 10Z"
      fill="currentColor" />
  </g>
  <defs>
    <clipPath id="clip0_3116_6345">
      <rect width="24" height="24" fill="currentColor" transform="translate(0.5)" />
    </clipPath>
  </defs>
</svg>