<svg width="20" height="20" viewBox="0 0 20 20" fill="none" xmlns="http://www.w3.org/2000/svg">
  <path
    d="M6.99935 14.1667L9.99935 11.1667L12.9993 14.1667L14.166 13L11.166 10L14.166 7.00002L12.9993 5.83335L9.99935 8.83335L6.99935 5.83335L5.83268 7.00002L8.83268 10L5.83268 13L6.99935 14.1667ZM9.99935 18.3334C8.84657 18.3334 7.76324 18.1146 6.74935 17.6771C5.73546 17.2396 4.85352 16.6459 4.10352 15.8959C3.35352 15.1459 2.75977 14.2639 2.32227 13.25C1.88477 12.2361 1.66602 11.1528 1.66602 10C1.66602 8.84724 1.88477 7.76391 2.32227 6.75002C2.75977 5.73613 3.35352 4.85419 4.10352 4.10419C4.85352 3.35419 5.73546 2.76044 6.74935 2.32294C7.76324 1.88544 8.84657 1.66669 9.99935 1.66669C11.1521 1.66669 12.2355 1.88544 13.2493 2.32294C14.2632 2.76044 15.1452 3.35419 15.8952 4.10419C16.6452 4.85419 17.2389 5.73613 17.6764 6.75002C18.1139 7.76391 18.3327 8.84724 18.3327 10C18.3327 11.1528 18.1139 12.2361 17.6764 13.25C17.2389 14.2639 16.6452 15.1459 15.8952 15.8959C15.1452 16.6459 14.2632 17.2396 13.2493 17.6771C12.2355 18.1146 11.1521 18.3334 9.99935 18.3334ZM9.99935 16.6667C11.8605 16.6667 13.4368 16.0209 14.7285 14.7292C16.0202 13.4375 16.666 11.8611 16.666 10C16.666 8.13891 16.0202 6.56252 14.7285 5.27085C13.4368 3.97919 11.8605 3.33335 9.99935 3.33335C8.13824 3.33335 6.56185 3.97919 5.27018 5.27085C3.97852 6.56252 3.33268 8.13891 3.33268 10C3.33268 11.8611 3.97852 13.4375 5.27018 14.7292C6.56185 16.0209 8.13824 16.6667 9.99935 16.6667Z"
    fill="#79716B" />
</svg>
  