<svg width="30" height="30" viewBox="0 0 30 30" fill="none" xmlns="http://www.w3.org/2000/svg">
  <rect width="30" height="30" rx="15" fill="#E9ECEF" />
  <path
    d="M20.0306 18.9694C20.1715 19.1103 20.2506 19.3014 20.2506 19.5006C20.2506 19.6999 20.1715 19.891 20.0306 20.0319C19.8897 20.1728 19.6986 20.2519 19.4993 20.2519C19.3001 20.2519 19.109 20.1728 18.9681 20.0319L15 16.0625L11.0306 20.0306C10.8897 20.1715 10.6986 20.2507 10.4993 20.2507C10.3001 20.2507 10.109 20.1715 9.9681 20.0306C9.8272 19.8897 9.74805 19.6986 9.74805 19.4994C9.74805 19.3001 9.8272 19.109 9.9681 18.9681L13.9375 15L9.96935 11.0306C9.82845 10.8897 9.7493 10.6986 9.7493 10.4994C9.7493 10.3001 9.82845 10.109 9.96935 9.96811C10.1102 9.82722 10.3013 9.74806 10.5006 9.74806C10.6999 9.74806 10.891 9.82722 11.0318 9.96811L15 13.9375L18.9693 9.96749C19.1102 9.82659 19.3013 9.74744 19.5006 9.74744C19.6999 9.74744 19.8909 9.82659 20.0318 9.96749C20.1727 10.1084 20.2519 10.2995 20.2519 10.4987C20.2519 10.698 20.1727 10.8891 20.0318 11.03L16.0625 15L20.0306 18.9694Z"
    fill="#6C757D" />
</svg>
  