<svg width="53" height="54" viewBox="0 0 53 54" fill="none" xmlns="http://www.w3.org/2000/svg">
<path d="M26.5003 49.0833C21.2371 49.0833 16.5812 47.4271 12.5326 44.1146C8.48401 40.8021 5.92602 36.5694 4.85866 31.4167H9.38574C10.4163 35.318 12.5142 38.5017 15.6795 40.9677C18.8448 43.4337 22.4517 44.6667 26.5003 44.6667C29.6656 44.6667 32.61 43.8845 35.3337 42.3203C38.0573 40.7561 40.192 38.5937 41.7378 35.8333H35.3337V31.4167H48.5837V44.6667H44.167V40.25C42.0691 43.0472 39.4743 45.2187 36.3826 46.7646C33.2909 48.3104 29.9969 49.0833 26.5003 49.0833ZM26.5003 33.625C24.66 33.625 23.0958 32.9809 21.8076 31.6927C20.5194 30.4045 19.8753 28.8403 19.8753 27C19.8753 25.1597 20.5194 23.5955 21.8076 22.3073C23.0958 21.0191 24.66 20.375 26.5003 20.375C28.3406 20.375 29.9048 21.0191 31.193 22.3073C32.4812 23.5955 33.1253 25.1597 33.1253 27C33.1253 28.8403 32.4812 30.4045 31.193 31.6927C29.9048 32.9809 28.3406 33.625 26.5003 33.625ZM4.41699 22.5833V9.33332H8.83366V13.75C10.9316 10.9528 13.5264 8.78124 16.618 7.23541C19.7097 5.68957 23.0038 4.91666 26.5003 4.91666C31.7635 4.91666 36.4194 6.57291 40.468 9.88541C44.5166 13.1979 47.0746 17.4305 48.142 22.5833H43.6149C42.5844 18.6819 40.4864 15.4983 37.3212 13.0323C34.1559 10.5663 30.5489 9.33332 26.5003 9.33332C23.335 9.33332 20.3906 10.1154 17.667 11.6797C14.9434 13.2439 12.8087 15.4062 11.2628 18.1667H17.667V22.5833H4.41699Z" fill="white"/>
</svg>
