<svg width="37" height="36" viewBox="0 0 37 36" fill="none" xmlns="http://www.w3.org/2000/svg">
<path d="M6.5 31.5V17.4375L3.8 19.5L2 17.1L6.5 13.65L9.5 11.3625L18.5 4.5L35 17.1L33.2 19.4625L30.5 17.4375V31.5H6.5ZM9.5 28.5H17H20H27.5V15.15L18.5 8.2875L9.5 15.15V28.5Z" fill="white"/>
<path d="M19.5688 25.8188C19.2812 26.1063 18.925 26.25 18.5 26.25C18.075 26.25 17.7188 26.1063 17.4313 25.8188C17.1438 25.5312 17 25.175 17 24.75C17 24.325 17.1438 23.9688 17.4313 23.6813C17.7188 23.3938 18.075 23.25 18.5 23.25C18.925 23.25 19.2812 23.3938 19.5688 23.6813C19.8563 23.9688 20 24.325 20 24.75C20 25.175 19.8563 25.5312 19.5688 25.8188Z" fill="white"/>
<path d="M20 20.25H17V12.75H20V20.25Z" fill="white"/>
</svg>
