<svg width="25" height="24" viewBox="0 0 25 24" fill="none" xmlns="http://www.w3.org/2000/svg">
  <path
    d="M4.5 21V11.625L2.7 13L1.5 11.4L4.5 9.1V6H6.5V7.575L12.5 3L23.5 11.4L22.3 12.975L20.5 11.625V21H4.5ZM6.5 19H11.5V15H13.5V19H18.5V10.1L12.5 5.525L6.5 10.1V19ZM4.5 5C4.5 4.16667 4.79167 3.45833 5.375 2.875C5.95833 2.29167 6.66667 2 7.5 2C7.78333 2 8.02083 1.90417 8.2125 1.7125C8.40417 1.52083 8.5 1.28333 8.5 1H10.5C10.5 1.83333 10.2083 2.54167 9.625 3.125C9.04167 3.70833 8.33333 4 7.5 4C7.21667 4 6.97917 4.09583 6.7875 4.2875C6.59583 4.47917 6.5 4.71667 6.5 5H4.5Z"
    fill="currentColor" />
</svg>