<svg width="64" height="64" viewBox="0 0 64 64" fill="none" xmlns="http://www.w3.org/2000/svg">
<circle cx="32" cy="32" r="32" fill="#FCC914"/>
<path d="M20 43.5V29.4375L17.3 31.5L15.5 29.1L20 25.65L23 23.3625L32 16.5L48.5 29.1L46.7 31.4625L44 29.4375V43.5H20ZM23 40.5H30.5H33.5H41V27.15L32 20.2875L23 27.15V40.5Z" fill="black"/>
<path d="M33.0688 37.8188C32.7812 38.1063 32.425 38.25 32 38.25C31.575 38.25 31.2188 38.1063 30.9313 37.8188C30.6438 37.5312 30.5 37.175 30.5 36.75C30.5 36.325 30.6438 35.9688 30.9313 35.6813C31.2188 35.3938 31.575 35.25 32 35.25C32.425 35.25 32.7812 35.3938 33.0688 35.6813C33.3563 35.9688 33.5 36.325 33.5 36.75C33.5 37.175 33.3563 37.5312 33.0688 37.8188Z" fill="black"/>
<path d="M33.5 32.25H30.5V24.75H33.5V32.25Z" fill="black"/>
</svg>
