<svg width="76" height="76" viewBox="0 0 76 76" fill="none" xmlns="http://www.w3.org/2000/svg">
<path d="M76 38C76 58.9868 58.9868 76 38 76C17.0132 76 0 58.9868 0 38C0 17.0132 17.0132 0 38 0C58.9868 0 76 17.0132 76 38ZM3.00684 38C3.00684 57.3262 18.6738 72.9932 38 72.9932C57.3262 72.9932 72.9932 57.3262 72.9932 38C72.9932 18.6738 57.3262 3.00684 38 3.00684C18.6738 3.00684 3.00684 18.6738 3.00684 38Z" fill="white"/>
<circle opacity="0.55" cx="38" cy="38" r="35" fill="black"/>
<circle cx="38" cy="38" r="28" fill="white"/>
</svg>
